# vtk DataFile Version 2.0
, Created by Gmsh 4.11.1 
ASCII
DATASET UNSTRUCTURED_GRID
POINTS 617 double
8.75 0 -44
14.75 0 -41.5
14.75 0 -38.5
8.75 0 -36
8.75 0 -3
11.75 0 -3
11.75 0 0
-11.75 0 0
-11.75 0 -3
-8.75 0 -3
-8.75 1.071565949253934e-15 -36
-14.75 1.806354028742346e-15 -38.5
-14.75 1.806354028742346e-15 -41.5
-8.75 1.071565949253934e-15 -44
-8.75 1.071565949253934e-15 -76
-14.75 1.806354028742346e-15 -78.5
-14.75 1.806354028742346e-15 -81.5
-8.75 1.071565949253934e-15 -84
-8.75 0 -120
8.75 0 -120
8.75 0 -84
14.75 0 -81.5
14.75 0 -78.5
8.75 0 -76
2 14.61377774567548 -41.5
2 11.25 -42.88483546582232
-2 11.25 -42.88483546582232
-1.999999999999999 14.61377774567548 -41.5
-8.75 9.775008152715701 -42.17950197316344
8.75 9.775008152715701 -42.17950197316344
2 14.61377774567548 -38.5
8.75 9.775008152715705 -37.82049802683656
-8.75 9.775008152715733 -37.82049802683654
-1.999999999999999 14.61377774567548 -38.5
-2 11.25 -37.11516453417768
2 11.25 -37.11516453417768
8.75 20 -3
8.75 20 -31.91709623134524
11.75 23 -3
-11.75 23 -3
-8.75 20 -3
11.75 23 0
-11.75 23 0
-8.75 20 -31.91709623134524
-8.75 20 -48.08290376865476
-8.75 20 -71.91709623134524
-8.75 9.775008152715689 -77.82049802683656
8.75 9.77500815271569 -77.82049802683656
-1.999999999999999 14.61377774567548 -78.5
-2 11.25 -77.11516453417768
2 11.25 -77.11516453417768
2 14.61377774567548 -78.5
-1.999999999999999 14.61377774567548 -81.5
2 14.61377774567548 -81.5
2 11.25 -82.88483546582232
-2 11.25 -82.88483546582232
-8.75 9.775008152715683 -82.17950197316344
8.75 9.775008152715683 -82.17950197316344
-8.75 20 -88.08290376865476
-8.75 20 -111.9170962313452
-8.75 6 -120
8.75 6 -120
8.75 20 -88.08290376865476
8.75 20 -111.9170962313452
8.75 20 -48.08290376865476
8.75 20 -71.91709623134524
4.905354217587146 3 -84
-4.905354217587145 3.000000000000002 -84
11.36056776750176 3 -81.5
2.999999999999999 11.36056776750176 -81.5
3 10.25 -81.94583138264713
-3 10.25 -81.94583138264713
-3 11.36056776750176 -81.5
-11.36056776750176 3.000000000000002 -81.5
11.36056776750176 3 -78.5
4.905354217587146 3 -76
-4.905354217587145 3.000000000000002 -76
-11.36056776750176 3.000000000000002 -78.5
2.999999999999999 11.36056776750176 -78.5
3 10.25 -78.05416861735287
-3 10.25 -78.05416861735287
-3 11.36056776750176 -78.5
4.905354217587146 3 -44
-4.905354217587145 3.000000000000002 -44
11.36056776750176 3 -41.5
2.999999999999999 11.36056776750176 -41.5
3 10.25 -41.94583138264712
-3 10.25 -41.94583138264712
-3 11.36056776750176 -41.5
-11.36056776750176 3.000000000000002 -41.5
11.36056776750176 3 -38.5
4.905354217587146 3 -36
-4.905354217587145 3.000000000000002 -36
-11.36056776750176 3.000000000000002 -38.5
2.999999999999999 11.36056776750176 -38.5
3 10.25 -38.05416861735288
-3 10.25 -38.05416861735288
-3 11.36056776750176 -38.5
8.75 0 -29.4
8.75 0 -22.80000000000001
8.75 0 -16.20000000000003
8.75 0 -9.600000000000048
5.875000000000016 0 0
3.730349362740526e-14 0 0
-5.874999999999972 0 0
-8.75 0 -9.599999999999998
-8.75 0 -16.19999999999999
-8.75 0 -22.79999999999997
-8.75 0 -29.39999999999995
-8.75 0 -50.39999999999999
-8.75 0 -56.79999999999997
-8.75 0 -63.19999999999997
-8.75 0 -69.59999999999999
-8.75 0 -90
-8.75 0 -96.00000000000001
-8.75 0 -102
-8.75 0 -108
-8.75 0 -114
2.916666666666666 0 -120
-2.916666666666668 0 -120
8.75 0 -90
8.75 0 -96.00000000000001
8.75 0 -102
8.75 0 -108
8.75 0 -114
8.75 0 -50.39999999999999
8.75 0 -56.79999999999997
8.75 0 -63.19999999999997
8.75 0 -69.59999999999999
13.81124187360007 5.178039967875486 -41.5
11.11446130048597 9.696971176609718 -41.5
7.002929423454755 12.98158231842758 -41.5
2 12.93226479050923 -42.19333211364823
-0.9961030124433505 11.25 -42.93999473888718
7.806255641895632e-16 11.25 -42.95833333333334
0.9961030124433521 11.25 -42.93999473888718
-2 12.93226479050923 -42.19333211364823
-7.002929423454721 12.9815823184276 -41.5
-11.11446130048594 9.696971176609756 -41.5
-13.81124187360006 5.178039967875522 -41.5
-8.75 4.952387974531169 -43.45654792103761
-2.973194783010732 11.01151242296547 -42.89339804644627
2.893412479600681e-15 11.17680649867448 -42.98883062555232
2.973194783010738 11.01151242296547 -42.89339804644627
8.75 4.952387974531174 -43.45654792103761
13.81124187360007 5.178039967875486 -38.5
11.11446130048597 9.696971176609718 -38.5
7.002929423454755 12.98158231842758 -38.5
8.75 4.952387974531173 -36.54345207896239
2.97319478301074 11.01151242296546 -37.10660195355374
1.871073403475106e-14 11.17680649867448 -37.01116937444769
-2.973194783010703 11.01151242296547 -37.10660195355374
-8.75 4.952387974531184 -36.5434520789624
-7.002929423454721 12.9815823184276 -38.5
-11.11446130048594 9.696971176609756 -38.5
-13.81124187360006 5.178039967875522 -38.5
-2 12.93226479050924 -37.80666788635177
-7.806255641895632e-16 11.25 -37.04166666666666
2 12.93226479050924 -37.80666788635177
8.75 6.666666666666651 -3
8.75 13.33333333333329 -3
8.75 20 -26.13367698507619
8.75 20 -20.35025773880713
8.75 20 -14.56683849253807
8.75 20 -8.783419246269037
8.75 14.88750407635784 -34.8687971290909
-5.875000000000016 23 -3
-3.730349362740526e-14 23 -3
5.874999999999972 23 -3
-11.75 5.749999999999988 -3
-11.75 11.49999999999999 -3
-11.75 17.24999999999999 -3
-8.75 13.33333333333335 -3
-8.75 6.666666666666705 -3
-2.916666666666666 20 -3
2.916666666666668 20 -3
11.75 5.749999999999988 -3
11.75 11.49999999999999 -3
11.75 17.24999999999999 -3
11.75 5.749999999999988 0
11.75 11.49999999999999 0
11.75 17.24999999999999 0
-5.875000000000016 23 0
-3.730349362740526e-14 23 0
5.874999999999972 23 0
-11.75 5.749999999999988 0
-11.75 11.49999999999999 0
-11.75 17.24999999999999 0
-8.75 20 -8.783419246269057
-8.75 20 -14.56683849253811
-8.75 20 -20.35025773880717
-8.75 20 -26.1336769850762
-8.75 14.88750407635786 -34.86879712909089
-8.75 14.88750407635785 -45.1312028709091
-8.75 20 -65.95854811567263
-8.75 20 -60
-8.75 20 -54.04145188432739
-8.75 14.88750407635784 -74.86879712909091
-8.75 4.952387974531165 -76.5434520789624
8.75 4.952387974531164 -76.5434520789624
2.973194783010732 11.01151242296545 -77.10660195355374
2.121835818373829e-15 11.17680649867447 -77.01116937444769
-2.973194783010728 11.01151242296545 -77.10660195355374
-7.002929423454721 12.9815823184276 -78.5
-11.11446130048594 9.696971176609756 -78.5
-13.81124187360006 5.178039967875522 -78.5
-2 12.93226479050924 -77.80666788635178
-7.806255641895632e-16 11.25 -77.04166666666667
2 12.93226479050924 -77.80666788635178
13.81124187360007 5.178039967875486 -78.5
11.11446130048597 9.696971176609718 -78.5
7.002929423454755 12.98158231842758 -78.5
-7.002929423454721 12.9815823184276 -81.5
-11.11446130048594 9.696971176609756 -81.5
-13.81124187360006 5.178039967875522 -81.5
13.81124187360007 5.178039967875486 -81.5
11.11446130048597 9.696971176609718 -81.5
7.002929423454755 12.98158231842758 -81.5
2 12.93226479050923 -82.19333211364822
-0.9961030124433505 11.25 -82.93999473888718
7.806255641895632e-16 11.25 -82.95833333333333
0.9961030124433521 11.25 -82.93999473888718
-2 12.93226479050923 -82.19333211364822
-8.75 4.952387974531164 -83.4565479210376
-2.973194783010739 11.01151242296547 -82.89339804644626
-6.751295785734918e-15 11.17680649867448 -82.98883062555231
2.973194783010726 11.01151242296547 -82.89339804644626
8.75 4.952387974531163 -83.4565479210376
-8.75 14.88750407635784 -85.13120287090909
-8.75 20 -105.9585481156726
-8.75 20 -100
-8.75 20 -94.04145188432739
-8.75 10.66666666666667 -117.3056987437817
-8.75 15.33333333333333 -114.6113974875635
2.916666666666666 6 -120
-2.916666666666668 6 -120
8.75 14.88750407635784 -85.13120287090909
8.75 20 -105.9585481156726
8.75 20 -100
8.75 20 -94.04145188432739
8.75 10.66666666666667 -117.3056987437817
8.75 15.33333333333333 -114.6113974875635
8.75 14.88750407635785 -45.1312028709091
8.75 20 -65.95854811567263
8.75 20 -60
8.75 20 -54.04145188432739
8.75 14.88750407635784 -74.86879712909091
2.916666666666666 20 -48.08290376865476
-2.916666666666668 20 -48.08290376865476
2.916666666666666 20 -31.91709623134524
-2.916666666666668 20 -31.91709623134524
2.916666666666666 20 -71.91709623134524
-2.916666666666668 20 -71.91709623134524
2.916666666666666 20 -88.08290376865476
-2.916666666666668 20 -88.08290376865476
2.916666666666666 20 -111.9170962313452
-2.916666666666668 20 -111.9170962313452
2.905598911392724e-15 5.75 -84
1.06581410364015e-14 3 -84
8.144309744934526 3 -82.77946954941856
8.308504678941933 8.308504678941935 -81.5
3 10.8054251181368 -81.72326987172909
2.539634878923363e-15 10.25 -82.125
-3 10.8054251181368 -81.72326987172909
-8.308504678941933 8.308504678941935 -81.5
-8.144309744934525 3 -82.77946954941856
8.144309744934523 3 -77.22053045058144
-3.552713678800501e-15 3 -76
-8.144309744934523 3 -77.22053045058144
8.308504678941933 8.308504678941935 -78.5
3 10.8054251181368 -78.27673012827091
-2.539634878923363e-15 10.25 -77.875
-3 10.8054251181368 -78.27673012827091
-8.308504678941933 8.308504678941935 -78.5
2.905598911392724e-15 5.75 -76
2.905598911392724e-15 5.75 -44
1.06581410364015e-14 3 -44
8.144309744934526 3 -42.77946954941857
8.308504678941933 8.308504678941935 -41.5
3 10.8054251181368 -41.72326987172909
2.539634878923363e-15 10.25 -42.125
-3 10.8054251181368 -41.72326987172909
-8.308504678941933 8.308504678941935 -41.5
-8.144309744934525 3 -42.77946954941857
8.144309744934523 3 -37.22053045058143
-3.552713678800501e-15 3 -36
-8.144309744934523 3 -37.22053045058143
8.308504678941933 8.308504678941935 -38.5
3 10.8054251181368 -38.27673012827091
-2.539634878923363e-15 10.25 -37.875
-3 10.8054251181368 -38.27673012827091
-8.308504678941933 8.308504678941935 -38.5
2.905598911392724e-15 5.75 -36
1.77635683940025e-15 0 -115.3929729682878
-3.825662117280319 0 -105
-3.187793764943314 0 -93.86856884929004
-3.450578312118718 0 -53.59999999999998
3.014385945340702 0 -73.52479737776432
-2.8342784487313 0 -4.140314223598537
2.940575627984244 0 -33.3648215701116
-3.034232335022717 0 -19.49999999999998
2.975909954585966 0 -86.65439258668684
2.977675635391679 0 -98.14476147488168
-4.266007541327181 0 -66.18432493268593
2.797392220859669 0 -46.26492273351567
3.450578312118709 0 -59.99999999999997
3.034232335022719 0 -12.90000000000003
3.666007242839365 0 -5.717884883061295
3.978708054831679 0 -39.72596867210304
4.24748417776212 0 -80.14096096481313
10.60416666666667 0 -80
10.60416666666667 0 -40
-2.12842526344675 0 -76.80215960315621
2.258355052074577 0 -26.04298479497768
-2.25564057330721 0 -83.32674320364113
1.808783084816678 0 -66.31867813912569
2.5828350454329 0 -53.53184568028538
-3.214659647995496 0 -47.58941355775601
-2.689307568904131 0 -59.96273966858131
-1.878842183586454 0 -36.47635121279566
2.351932567065242 0 -104.912730762743
2.915826784907788 0 -92.40044062439226
-3.423913309558121 0 -99.35994054220812
3.642252686421301 0 -19.49418212193651
-4.409238320728483 0 -25.84388284312944
-4.016018870101683 0 -12.20915960506699
-3.378612030769527 0 -110.7826798851553
3.742694675445755 0 -111.2381843460447
-10.60416666666666 0 -80
-10.28593051619818 0 -40.25921948587057
-3.729047438869824 0 -41.47369652314871
-3.178543962436092 0 -71.40499334212203
-3.290226689752664 0 -31.27041321793112
-0.7445979632277338 0 -8.499097483434298
-5.910154927777973 0 -80.12360881994596
4.673836842146301 0 -115.9236679512421
-4.636685551873213 0 -115.8771879042126
-3.557116008374197 0 -88.33630786293024
-5.018979056412141 0 -7.489714262419966
11.29793860737673 3.059752532764454 -42.76877710142422
-11.29793860728869 3.059752532731107 -42.76877710146326
-10.90688052040443 6.508942522482495 -42.35356999021215
10.90688052040446 6.508942522482468 -42.35356999021215
4.574844262825686 14.02259961529569 -40.01394335997075
9.206363519285009 11.52412125720561 -40.01394335997075
14.51341306577473 2.631224274401456 -39.98605664002925
12.66601178342965 7.558746291682316 -40.01394335997075
11.68817289084677 2.877711036799264 -37.36967397902152
-11.32253013070689 3.014336278291485 -37.23621128756574
10.90688052040445 6.508942522482467 -37.64643000978785
-11.13907656813516 6.483209924671604 -37.72433629397506
8.75 14.9727718978721 -18.13903207711508
8.75 5.73492103680941 -26.96862542634037
8.75 5.067648431102366 -12.90885980901508
8.75 8.575283672041822 -32.91224557349865
8.75 13.39239344228606 -28.45349907047201
8.75 5.085401922594553 -19.64624753922593
8.75 14.99141201199516 -11.67512886940356
8.75 15.13537730758191 -23.24196736194166
8.75 9.999999999999973 -8.133119346344715
8.75 3.571267135131242 -32.46061758268591
8.75 4.838172446001499 -7.820039507745639
8.75 10.07591995392915 -22.61992622323578
8.75 10.03219236958222 -15.52038564405669
8.75 15.66494906906569 -6.918333492403463
10.25 3.10416666666666 -3
-10.25 3.104166666666674 -3
11.75 20.125 -1.5
11.75 8.624999999999988 -1.5
11.75 14.37499999999999 -1.500000000000001
11.75 2.874999999999994 -1.5
3.157610638484556 18.22886740495932 0
-2.707174061168084 4.878797530676509 0
7.069955745470663 8.71654637064 0
-6.619519168154191 14.39111856499582 0
7.102873022115112 14.37499999999999 0
0.1126091443291166 11.52691623390895 0
-7.000954855602266 8.644857627020135 0
-2.792058517349997 18.15992185565015 0
2.948495529093417 4.721447277005962 0
-7.528051718759411 18.81262893003678 0
7.528051718759418 4.187371069963205 0
7.820492259183635 19.07601590637069 0
-7.553981076842906 4.160878030182232 0
-11.75 20.125 -1.5
-11.75 14.37499999999999 -1.5
-11.75 8.624999999999989 -1.5
-11.75 2.874999999999994 -1.5
-8.75 14.97277189787211 -18.13903207711508
-8.75 5.734921036809416 -26.96862542634034
-8.75 5.067648431102376 -12.90885980901504
-8.75 8.575283672041833 -32.91224557349864
-8.75 13.39239344228606 -28.45349907047201
-8.75 5.085401922594559 -19.64624753922588
-8.75 14.99141201199515 -11.67512886940358
-8.75 15.13537730758193 -23.24196736194168
-8.75 10.00000000000003 -8.133119346344689
-8.75 3.571267135131249 -32.4606175826859
-8.75 4.838172446001495 -7.820039507745607
-8.75 10.07591995392917 -22.61992622323574
-8.75 10.03219236958223 -15.52038564405667
-8.75 15.66494906906571 -6.918333492403464
-14.51341306577472 2.631224274401478 -39.98605664002925
-12.66601178342963 7.55874629168235 -39.98605664002925
-4.570210430095481 14.02411054664953 -40
-9.206363519284977 11.52412125720563 -40.01394335997075
-8.75 14.86448693884106 -58.01381729477578
-8.75 5.687616295664187 -67.19719685491178
-8.75 8.558833686298774 -47.02118507755871
-8.75 8.537952506698451 -72.97879882864922
-8.75 13.23374216056864 -68.57210077976168
-8.75 5.924745152423244 -52.75476612914996
-8.75 13.41123426431056 -51.69218957505367
-8.75 5.161061410855926 -59.99199383067694
-8.75 15.56183322404097 -63.14889323804201
-8.75 3.83559135537876 -72.46388955250468
-8.75 3.887193362650637 -47.52649982554925
-8.75 10.21146320289148 -62.73435391140884
-8.75 9.781604790952711 -56.92113476949643
11.68817289084677 2.877711036799259 -77.36967397902151
-11.3225301307069 3.014336278291475 -77.23621128756574
-11.13907656813515 6.483209924671612 -77.72433629397507
10.90688052040445 6.508942522482466 -77.64643000978785
-14.51341306577472 2.631224274401478 -79.98605664002926
-12.66601178342964 7.558746291682346 -79.98605664002925
-4.570210430095481 14.02411054664953 -80
-9.206363519284977 11.52412125720563 -79.98605664002925
11.29793860737673 3.05975253276445 -82.76877710142422
-11.29793860728869 3.059752532731102 -82.76877710146326
-10.90688052040444 6.508942522482498 -82.35356999021215
10.90688052040445 6.508942522482467 -82.35356999021215
-8.75 14.90671520664417 -97.01860116776302
-8.75 10.54274114467523 -112.3223707228513
-8.75 9.229329691371493 -88.15220084968871
-8.75 5.196152422706613 -99
-8.75 5.182994279478172 -104.4012761746713
-8.75 5.084614010427838 -92.84216175052505
-8.75 15.09599628866458 -103.0664117911188
-8.75 14.87919121088544 -91.04900297175512
-8.75 5.449660946723421 -110.086330004693
-8.75 15.30276322384078 -109.1588197288817
-8.75 4.47821812973781 -88.24349867191805
-8.75 10.52462295064153 -106.407657048028
-8.75 5.44317812634422 -115.6190665785543
-8.75 10.09175472159806 -94.48518219445502
-8.75 10.35864397312763 -100.1899871744428
5.833333333333332 3 -120
-1.77635683940025e-15 3.000000000000001 -120
-5.833333333333334 3 -120
8.75 14.83974596215562 -97.02072594216369
8.75 10.54274114467522 -112.3223707228513
8.75 8.605281937218253 -87.24850510390087
8.75 5.196152422706613 -99
8.75 14.79405119651839 -90.92376716015472
8.75 5.182994279478171 -104.4012761746713
8.75 4.511404597744594 -92.21105308247891
8.75 15.0880237595588 -103.0666647404522
8.75 5.449660946723421 -110.086330004693
8.75 15.30227898373475 -109.1588350926653
8.75 10.52462295064153 -106.407657048028
8.75 5.44317812634422 -115.6190665785543
8.75 3.613814901898802 -87.38322122148348
8.75 9.929667098743108 -94.29128612226576
8.75 10.42630702499 -100
4.574844262825686 14.02259961529569 -79.98605664002926
9.206363519285013 11.5241212572056 -79.98605664002925
14.51428172676004 2.626428364954866 -80
12.66601178342965 7.558746291682318 -80.01394335997075
8.75 14.86448693884106 -58.01381729477578
8.75 5.687616295664187 -67.19719685491178
8.75 8.558833686298776 -47.02118507755871
8.75 8.537952506698449 -72.97879882864922
8.75 13.23374216056864 -68.57210077976168
8.75 5.924745152423245 -52.75476612914996
8.75 13.41123426431056 -51.69218957505367
8.75 5.161061410855926 -59.99199383067694
8.75 15.56183322404097 -63.14889323804201
8.75 3.835591355378759 -72.46388955250468
8.75 3.887193362650639 -47.52649982554925
8.75 10.21146320289148 -62.73435391140885
8.75 9.781604790952711 -56.92113476949643
2 12.93201417872824 -40
0 11.25 -40.73499868472179
-2 12.93201417872824 -40
-2.046755347909905 13.52851655385709 -44.34659105896795
1.980944701127322 13.5625933881536 -44.36626532842217
-6.414692057830289 12.33125611453678 -43.65535242203627
6.414692057830292 12.33125611453678 -43.65535242203627
-0.01096844113043005 16.62880797903137 -46.13654514785861
-4.544536713832796 16.34086896608877 -45.970303481226
4.544536713832799 16.34086896608877 -45.970303481226
-2.450592239455103 12.91128880740745 -36.00976554659606
1.114957462371351 14.6509258912465 -35.00538560794933
-6.079040705581516 12.56958715337435 -36.20704708853461
6.414692057830288 12.33125611453678 -36.34464757796373
-4.61169407887269 15.98064183892847 -34.23767374760941
4.946635952111462 16.4608508873953 -33.96042492420979
-3.741412011995156 20 -17.45854811567264
0 20 -7.290637995632835
-3.552713678800501e-15 20 -27.62645823571241
3.741412011995155 20 -17.4585481156726
-2.562398832955576 20 -12.06141513609768
2.562398832955573 20 -22.85568109524756
3.936280680353892 20 -11.35451826074687
-3.936280680353895 20 -23.56257797059837
4.595813099924445 20 -28.09000175574533
-4.595813099924449 20 -6.827094475599912
4.539424979290239 20 -7.196785117494924
-4.539424979290241 20 -27.72031111385032
8.812499999999986 23 -1.5
2.937499999999966 23 -1.5
-8.812500000000007 23 -1.5
-2.937500000000027 23 -1.499999999999999
0.3098762668171169 20 -67.11521946170217
-1.77635683940025e-15 20 -53.13471862406399
4.0226315551933 20 -63.00737005448797
-2.221968870158914 20 -61.23283672731398
3.967052741630157 20 -57.29704172614323
-5.11106044069845 20 -55.89423701243928
4.501653764746555 20 -52.36587306666609
-4.465751854001695 20 -67.62815935347585
4.501653764746555 20 -67.63412693333392
-5.313484824861682 20 -51.62293867301748
-2.450592239455123 12.91128880740744 -76.00976554659607
1.11495746237134 14.6509258912465 -75.00538560794934
6.41469205783028 12.33125611453677 -76.34464757796373
-6.079040705581541 12.56958715337433 -76.20704708853462
-4.611694078872702 15.98064183892847 -74.23767374760941
4.94663595211146 16.46085088739529 -73.96042492420979
-2 12.93201417872824 -80
0 11.25 -80.7349986847218
2 12.93201417872824 -80
-2.046755347909912 13.52851655385708 -84.34659105896795
1.980944701127315 13.56259338815359 -84.36626532842216
6.414692057830285 12.33125611453677 -83.65535242203627
-6.41469205783029 12.33125611453677 -83.65535242203627
-0.01096844113043183 16.62880797903137 -86.1365451478586
4.544536713832795 16.34086896608877 -85.970303481226
-4.5445367138328 16.34086896608877 -85.970303481226
0.3098762668171169 20 -107.1152194617022
-1.77635683940025e-15 20 -93.13471862406399
4.0226315551933 20 -103.007370054488
-2.221968870158914 20 -101.232836727314
3.967052741630157 20 -97.29704172614323
-5.11106044069845 20 -95.89423701243928
-4.465751854001695 20 -107.6281593534759
4.501653764746555 20 -107.6341269333339
4.501653764746555 20 -92.3658730666661
-5.313484824861685 20 -91.62293867301747
4.861111111111111 13 -115.9585481156726
-4.861111111111109 13 -115.9585481156726
0 9.937500000000004 -117.7266833150658
0 16.0625 -114.1904129162794
5.055555555555555 9.120833333333335 -118.198186034904
5.055555555555555 16.87916666666667 -113.7189101964412
-5.055555555555555 9.120833333333335 -118.198186034904
-5.055555555555555 16.87916666666667 -113.7189101964412
6.344017895697957 6.037401966301889 -82.74680412539946
-6.048797015783975 6.310437836009652 -82.75364298625405
-1.546407815479777 8.459901318198289 -82.81246832752781
1.755829660654103 7.9717341963355 -82.99466207127314
1.502406205683648 3 -80.39810154366639
-1.692460386305628 3 -79.60609139655304
-8.813821788899446 3 -80.32647108781975
8.81382178889945 3 -79.67352891218025
-5.22937287146406 3 -80.56179464062468
5.202222274232344 3 -79.43880435083523
10.18642028425343 5.856563992013597 -79.95633488074017
5.891985665115102 10.16597289599368 -80
-0.924312174343521 10.25 -80
1.015137565131297 10.25 -80
-5.821071359706918 10.20674425197378 -80
-10.18642028425343 5.856563992013601 -80.04366511925983
6.048797016230701 6.310437835556185 -77.24635701373835
-6.048797015783874 6.310437836009648 -77.24635701374592
-1.546407815479781 8.459901318198289 -77.18753167247219
1.546407815479665 8.459901318197689 -77.18753167247193
6.34401789569796 6.037401966301887 -42.74680412539946
-6.048797015783976 6.310437836009653 -42.75364298625405
-1.546407815479779 8.459901318198289 -42.81246832752781
1.755829660654104 7.971734196335501 -42.99466207127313
1.502406205683648 3 -40.39810154366639
-1.692460386305628 3 -39.60609139655304
-8.813821788899446 3 -40.32647108781976
8.81382178889945 3 -39.67352891218024
-5.229372871464058 3 -40.56179464062468
5.202222274232344 3 -39.43880435083523
10.18642028425343 5.856563992013596 -40.04366511925983
5.856563992013596 10.18642028425343 -39.95633488074017
0.9243121743435205 10.25 -40
-1.015137565131296 10.25 -40
-5.821071359706918 10.20674425197378 -40
-10.18642028425343 5.856563992013601 -40.04366511925982
6.048797016230698 6.310437835556183 -37.24635701373835
-6.048797015783883 6.310437836009645 -37.24635701374592
-1.546407815479783 8.459901318198289 -37.18753167247219
1.546407815479667 8.459901318197689 -37.18753167247193
0.6250614594614818 9.032299207342342 -51.251722787292
-0.08373908233309665 9.384474946898528 -93.38003029954949
0 11.3191118691469 -19.06236418578146
1.77635683940025e-15 8.756539710898824 -108.6086592950484
0 11.36547870301297 -10.00989634045265
-0.1118195130767465 10.83902206924028 -66.50864184038861
1.282289892039295 12.61624586012245 -101.7475478117104
-2.512429685475294 5.497454562944302 -113.7765669900528
-0.6503533763866984 12.81873182568719 -27.76582081679674
3.160415647712378 5.63743935521248 -89.4362094021884
-2.915292374281981 14.19816434111653 -5.282514876127155
1.921426680784597 6.869746566803427 -58.91583400354621
-2.079414272030189 6.31142971033596 -102.2900492414074
-3.242386396289713 13.84922236848893 -106.1584380207427
-2.349070766762757 6.166699148663434 -6.588003947642159
-2.382400829435823 15.26156862934892 -91.0260471401842
-2.382400829435829 15.26156862934893 -51.0260471401842
2.736708516802842 14.23436686133998 -108.7055741136782
-2.057553865163019 14.2758483620221 -57.67245152417525
0.2304256301705326 6.189317609922692 -26.29240269608459

CELLS 3469 15185
1 0
1 1
1 2
1 3
1 4
1 5
1 6
1 7
1 8
1 9
1 10
1 11
1 12
1 13
1 14
1 15
1 16
1 17
1 18
1 19
1 20
1 21
1 22
1 23
1 24
1 25
1 26
1 27
1 28
1 29
1 30
1 31
1 32
1 33
1 34
1 35
1 36
1 37
1 38
1 39
1 40
1 41
1 42
1 43
1 44
1 45
1 46
1 47
1 48
1 49
1 50
1 51
1 52
1 53
1 54
1 55
1 56
1 57
1 58
1 59
1 60
1 61
1 62
1 63
1 64
1 65
1 66
1 67
1 68
1 69
1 70
1 71
1 72
1 73
1 74
1 75
1 76
1 77
1 78
1 79
1 80
1 81
1 82
1 83
1 84
1 85
1 86
1 87
1 88
1 89
1 90
1 91
1 92
1 93
1 94
1 95
1 96
1 97
2 0 1
2 1 2
2 2 3
2 3 98
2 98 99
2 99 100
2 100 101
2 101 4
2 4 5
2 5 6
2 6 102
2 102 103
2 103 104
2 104 7
2 8 7
2 8 9
2 9 105
2 105 106
2 106 107
2 107 108
2 108 10
2 11 10
2 12 11
2 13 12
2 13 109
2 109 110
2 110 111
2 111 112
2 112 14
2 15 14
2 16 15
2 17 16
2 17 113
2 113 114
2 114 115
2 115 116
2 116 117
2 117 18
2 19 118
2 118 119
2 119 18
2 20 120
2 120 121
2 121 122
2 122 123
2 123 124
2 124 19
2 20 21
2 21 22
2 22 23
2 0 125
2 125 126
2 126 127
2 127 128
2 128 23
2 1 129
2 129 130
2 130 131
2 131 24
2 24 132
2 132 25
2 26 133
2 133 134
2 134 135
2 135 25
2 27 136
2 136 26
2 27 137
2 137 138
2 138 139
2 139 12
2 28 140
2 140 13
2 28 141
2 141 142
2 142 143
2 143 29
2 29 144
2 144 0
2 2 145
2 145 146
2 146 147
2 147 30
2 24 30
2 3 148
2 148 31
2 31 149
2 149 150
2 150 151
2 151 32
2 10 152
2 152 32
2 33 153
2 153 154
2 154 155
2 155 11
2 34 156
2 156 33
2 35 157
2 157 34
2 35 158
2 158 30
2 4 159
2 159 160
2 160 36
2 37 161
2 161 162
2 162 163
2 163 164
2 164 36
2 31 165
2 165 37
2 39 166
2 166 167
2 167 168
2 168 38
2 8 169
2 169 170
2 170 171
2 171 39
2 40 172
2 172 173
2 173 9
2 40 174
2 174 175
2 175 36
2 5 176
2 176 177
2 177 178
2 178 38
2 6 179
2 179 180
2 180 181
2 181 41
2 38 41
2 42 182
2 182 183
2 183 184
2 184 41
2 7 185
2 185 186
2 186 187
2 187 42
2 39 42
2 40 188
2 188 189
2 189 190
2 190 191
2 191 43
2 32 192
2 192 43
2 27 33
2 44 193
2 193 28
2 45 194
2 194 195
2 195 196
2 196 44
2 46 197
2 197 45
2 14 198
2 198 46
2 23 199
2 199 47
2 47 200
2 200 201
2 201 202
2 202 46
2 48 203
2 203 204
2 204 205
2 205 15
2 49 206
2 206 48
2 50 207
2 207 49
2 50 208
2 208 51
2 22 209
2 209 210
2 210 211
2 211 51
2 52 48
2 52 212
2 212 213
2 213 214
2 214 16
2 21 215
2 215 216
2 216 217
2 217 53
2 53 218
2 218 54
2 55 219
2 219 220
2 220 221
2 221 54
2 52 222
2 222 55
2 56 223
2 223 17
2 56 224
2 224 225
2 225 226
2 226 57
2 57 227
2 227 20
2 58 228
2 228 56
2 59 229
2 229 230
2 230 231
2 231 58
2 60 232
2 232 233
2 233 59
2 18 60
2 61 234
2 234 235
2 235 60
2 19 61
2 62 236
2 236 57
2 63 237
2 237 238
2 238 239
2 239 62
2 61 240
2 240 241
2 241 63
2 53 51
2 64 242
2 242 29
2 65 243
2 243 244
2 244 245
2 245 64
2 47 246
2 246 65
2 25 35
2 26 34
2 64 247
2 247 248
2 248 44
2 37 249
2 249 250
2 250 43
2 65 251
2 251 252
2 252 45
2 55 49
2 54 50
2 62 253
2 253 254
2 254 58
2 63 255
2 255 256
2 256 59
2 66 257
2 257 67
2 67 258
2 258 66
2 66 259
2 259 68
2 68 260
2 260 69
2 69 261
2 261 70
2 71 262
2 262 70
2 72 263
2 263 71
2 72 264
2 264 73
2 73 265
2 265 67
2 68 74
2 74 266
2 266 75
2 75 267
2 267 76
2 76 268
2 268 77
2 73 77
2 74 269
2 269 78
2 69 78
2 70 79
2 79 270
2 270 78
2 79 271
2 271 80
2 71 80
2 80 272
2 272 81
2 72 81
2 81 273
2 273 77
2 75 274
2 274 76
2 82 275
2 275 83
2 83 276
2 276 82
2 82 277
2 277 84
2 84 278
2 278 85
2 85 279
2 279 86
2 87 280
2 280 86
2 88 281
2 281 87
2 88 282
2 282 89
2 89 283
2 283 83
2 84 90
2 90 284
2 284 91
2 91 285
2 285 92
2 92 286
2 286 93
2 89 93
2 90 287
2 287 94
2 85 94
2 86 95
2 95 288
2 288 94
2 95 289
2 289 96
2 87 96
2 96 290
2 290 97
2 88 97
2 97 291
2 291 93
2 91 292
2 292 92
3 1 311 0
3 0 304 125
3 0 308 304
3 0 311 308
3 2 311 1
3 3 311 2
3 98 299 3
3 299 308 3
3 308 311 3
3 6 4 5
3 102 4 6
3 4 307 101
3 102 307 4
3 8 9 7
3 7 9 104
3 9 298 104
3 105 338 9
3 9 338 298
3 11 329 10
3 10 332 108
3 10 330 319
3 319 332 10
3 329 330 10
3 12 329 11
3 13 329 12
3 109 317 13
3 317 330 13
3 13 330 329
3 15 328 14
3 14 331 112
3 312 331 14
3 14 334 312
3 328 334 14
3 16 328 15
3 17 328 16
3 113 337 17
3 314 334 17
3 17 337 314
3 17 334 328
3 18 336 117
3 119 336 18
3 19 335 118
3 124 335 19
3 21 310 20
3 20 301 120
3 20 309 301
3 20 310 309
3 22 310 21
3 23 310 22
3 128 297 23
3 297 309 23
3 309 310 23
3 99 313 98
3 98 313 299
3 100 323 99
3 99 323 313
3 101 306 100
3 306 323 100
3 101 307 306
3 103 307 102
3 104 298 103
3 298 307 103
3 106 325 105
3 325 338 105
3 107 300 106
3 300 325 106
3 108 324 107
3 107 324 300
3 108 332 324
3 110 296 109
3 296 317 109
3 111 318 110
3 110 318 296
3 112 303 111
3 303 318 111
3 112 331 303
3 114 295 113
3 295 337 113
3 115 322 114
3 114 322 295
3 116 294 115
3 294 322 115
3 117 326 116
3 116 326 294
3 117 336 326
3 118 293 119
3 118 335 293
3 293 336 119
3 120 321 121
3 301 321 120
3 121 302 122
3 121 321 302
3 122 320 123
3 302 320 122
3 123 327 124
3 320 327 123
3 327 335 124
3 125 316 126
3 304 316 125
3 126 305 127
3 126 316 305
3 127 315 128
3 305 315 127
3 128 315 297
3 293 327 326
3 326 336 293
3 293 335 327
3 320 322 294
3 294 326 320
3 302 321 295
3 295 322 302
3 321 337 295
3 316 317 296
3 296 318 316
3 297 312 309
3 297 331 312
3 315 331 297
3 298 333 307
3 298 338 333
3 299 319 308
3 313 332 299
3 299 332 319
3 300 323 306
3 306 325 300
3 313 323 300
3 300 324 313
3 309 314 301
3 314 337 301
3 301 337 321
3 302 322 320
3 315 318 303
3 303 331 315
3 308 330 304
3 304 317 316
3 304 330 317
3 305 318 315
3 316 318 305
3 307 333 306
3 306 333 325
3 319 330 308
3 312 314 309
3 312 334 314
3 324 332 313
3 326 327 320
3 333 338 325
3 0 339 1
3 144 339 0
3 1 339 129
3 12 340 13
3 139 340 12
3 13 340 140
3 131 132 24
3 143 25 132
3 143 135 25
3 136 26 141
3 133 141 26
3 27 136 137
3 137 28 138
3 137 141 28
3 28 341 138
3 140 341 28
3 130 29 131
3 130 342 29
3 143 131 29
3 29 342 144
3 129 342 130
3 339 342 129
3 132 131 143
3 142 133 134
3 135 142 134
3 137 136 141
3 138 341 139
3 139 341 340
3 340 341 140
3 142 141 133
3 143 142 135
3 144 342 339
3 1 345 2
3 129 345 1
3 2 345 145
3 30 343 24
3 24 343 131
3 147 343 30
3 130 346 129
3 145 345 129
3 129 346 145
3 131 344 130
3 130 344 146
3 146 346 130
3 131 343 147
3 147 344 131
3 145 346 146
3 146 344 147
3 2 347 3
3 145 347 2
3 3 347 148
3 10 348 11
3 152 348 10
3 11 348 155
3 147 30 158
3 146 147 31
3 31 349 146
3 149 31 147
3 148 349 31
3 32 151 153
3 32 350 152
3 153 154 32
3 154 350 32
3 33 153 156
3 156 151 34
3 151 150 34
3 34 150 157
3 149 158 35
3 150 149 35
3 150 35 157
3 146 349 145
3 145 349 347
3 149 147 158
3 347 349 148
3 153 151 156
3 152 350 348
3 155 350 154
3 348 350 155
3 3 360 98
3 148 360 3
3 101 361 4
3 4 361 159
3 31 354 148
3 165 354 31
3 160 364 36
3 36 364 164
3 161 355 37
3 37 355 165
3 98 352 99
3 98 360 352
3 99 356 100
3 352 356 99
3 100 353 101
3 100 356 353
3 353 361 101
3 354 360 148
3 159 359 160
3 159 361 359
3 359 364 160
3 162 358 161
3 161 358 355
3 163 351 162
3 351 358 162
3 164 357 163
3 163 357 351
3 164 364 357
3 165 355 354
3 357 363 351
3 351 362 358
3 351 363 362
3 354 355 352
3 352 360 354
3 355 362 352
3 352 362 356
3 356 363 353
3 359 361 353
3 353 363 359
3 358 362 355
3 362 363 356
3 359 363 357
3 357 364 359
3 5 4 365
3 4 159 365
3 176 5 365
3 9 8 366
3 8 169 366
3 173 9 366
3 36 168 38
3 178 36 38
3 36 178 160
3 36 175 168
3 39 166 40
3 171 39 40
3 166 174 40
3 172 171 40
3 177 159 160
3 177 176 159
3 159 176 365
3 178 177 160
3 174 166 167
3 175 167 168
3 175 174 167
3 173 169 170
3 169 173 366
3 172 170 171
3 172 173 170
3 5 370 6
3 176 370 5
3 6 370 179
3 41 367 38
3 38 367 178
3 181 367 41
3 177 368 176
3 176 368 179
3 179 370 176
3 178 369 177
3 180 368 177
3 177 369 180
3 178 367 181
3 181 369 178
3 179 368 180
3 180 369 181
3 6 381 102
3 179 381 6
3 104 383 7
3 7 383 185
3 41 382 181
3 184 382 41
3 42 380 182
3 187 380 42
3 102 379 103
3 102 381 379
3 103 372 104
3 103 379 372
3 372 383 104
3 180 373 179
3 373 381 179
3 181 375 180
3 180 375 373
3 181 382 375
3 182 378 183
3 182 380 378
3 183 371 184
3 183 378 371
3 371 382 184
3 185 377 186
3 185 383 377
3 186 374 187
3 186 377 374
3 374 380 187
3 371 376 375
3 375 382 371
3 371 378 376
3 376 377 372
3 372 379 376
3 377 383 372
3 375 376 373
3 376 379 373
3 379 381 373
3 374 377 376
3 376 378 374
3 378 380 374
3 8 7 387
3 7 185 387
3 169 8 387
3 42 39 384
3 39 171 384
3 187 42 384
3 170 169 386
3 169 185 386
3 185 169 387
3 171 170 385
3 170 186 385
3 186 170 386
3 171 187 384
3 187 171 385
3 185 186 386
3 186 187 385
3 105 9 398
3 9 173 398
3 10 108 397
3 152 10 397
3 32 152 391
3 192 32 391
3 172 40 401
3 40 188 401
3 191 43 392
3 43 192 392
3 106 105 390
3 390 105 398
3 107 106 393
3 106 390 393
3 108 107 389
3 389 107 393
3 108 389 397
3 391 152 397
3 173 172 396
3 396 172 401
3 173 396 398
3 188 189 394
3 188 394 401
3 189 190 388
3 189 388 394
3 190 191 395
3 388 190 395
3 191 392 395
3 192 391 392
3 394 388 400
3 388 395 399
3 388 399 400
3 391 389 392
3 389 391 397
3 392 389 399
3 389 393 399
3 393 390 400
3 396 390 398
3 390 396 400
3 395 392 399
3 399 393 400
3 396 394 400
3 394 396 401
3 11 402 12
3 155 402 11
3 12 402 139
3 27 404 33
3 137 404 27
3 33 404 153
3 138 405 137
3 153 404 137
3 137 405 153
3 139 403 138
3 138 403 154
3 154 405 138
3 139 402 155
3 155 403 139
3 153 405 154
3 154 403 155
3 109 13 416
3 13 140 416
3 14 112 415
3 198 14 415
3 140 28 408
3 28 193 408
3 193 44 412
3 44 196 412
3 194 45 410
3 45 197 410
3 197 46 409
3 46 198 409
3 110 109 411
3 411 109 416
3 111 110 413
3 110 411 413
3 112 111 407
3 407 111 413
3 112 407 415
3 140 408 416
3 408 193 412
3 195 194 414
3 194 410 414
3 196 195 406
3 406 195 414
3 196 406 412
3 197 409 410
3 409 198 415
3 412 406 418
3 406 414 417
3 406 417 418
3 409 407 410
3 407 409 415
3 410 407 417
3 407 413 417
3 411 408 412
3 408 411 416
3 414 410 417
3 411 412 418
3 413 411 418
3 417 413 418
3 14 420 15
3 198 420 14
3 15 420 205
3 22 419 23
3 209 419 22
3 23 419 199
3 46 421 198
3 46 202 203
3 203 204 46
3 204 421 46
3 199 422 47
3 200 47 211
3 210 211 47
3 47 422 210
3 48 203 206
3 206 202 49
3 202 201 49
3 49 201 207
3 200 208 50
3 201 200 50
3 201 50 207
3 211 51 208
3 198 421 420
3 419 422 199
3 200 211 208
3 203 202 206
3 205 421 204
3 420 421 205
3 210 422 209
3 209 422 419
3 15 423 16
3 205 423 15
3 16 423 214
3 52 425 48
3 48 425 203
3 212 425 52
3 203 426 204
3 203 425 212
3 212 426 203
3 204 424 205
3 213 424 204
3 204 426 213
3 214 423 205
3 205 424 214
3 213 426 212
3 214 424 213
3 16 428 17
3 214 428 16
3 17 428 223
3 20 427 21
3 227 427 20
3 21 427 215
3 52 222 212
3 217 218 53
3 226 54 218
3 226 221 54
3 222 55 224
3 219 224 55
3 212 56 213
3 212 224 56
3 56 429 213
3 223 429 56
3 216 57 217
3 216 430 57
3 226 217 57
3 57 430 227
3 212 222 224
3 213 429 214
3 214 429 428
3 215 430 216
3 427 430 215
3 218 217 226
3 225 219 220
3 221 225 220
3 428 429 223
3 225 224 219
3 226 225 221
3 227 430 427
3 113 17 441
3 17 223 441
3 60 18 443
3 18 117 443
3 223 56 433
3 56 228 433
3 228 58 438
3 58 231 438
3 229 59 440
3 59 233 440
3 232 60 443
3 114 113 436
3 436 113 441
3 115 114 434
3 434 114 436
3 116 115 435
3 115 434 435
3 117 116 439
3 116 435 439
3 117 439 443
3 223 433 441
3 433 228 438
3 230 229 437
3 437 229 440
3 231 230 431
3 431 230 437
3 231 431 438
3 233 232 432
3 432 232 443
3 233 432 440
3 431 437 445
3 438 431 444
3 444 431 445
3 432 439 442
3 439 432 443
3 440 432 442
3 433 436 441
3 436 433 444
3 433 438 444
3 435 434 445
3 434 436 444
3 434 444 445
3 439 435 442
3 442 435 445
3 437 440 442
3 437 442 445
3 60 448 18
3 18 448 119
3 19 446 61
3 118 446 19
3 235 448 60
3 61 446 234
3 119 447 118
3 118 447 446
3 119 448 447
3 234 447 235
3 446 447 234
3 447 448 235
3 61 460 19
3 19 460 124
3 120 461 20
3 20 461 227
3 227 451 57
3 57 451 236
3 240 460 61
3 236 453 62
3 62 453 239
3 237 458 63
3 63 458 241
3 121 455 120
3 455 461 120
3 122 452 121
3 452 455 121
3 123 454 122
3 122 454 452
3 124 457 123
3 123 457 454
3 124 460 457
3 227 461 451
3 451 453 236
3 238 456 237
3 456 458 237
3 239 449 238
3 449 456 238
3 239 453 449
3 241 450 240
3 450 460 240
3 241 458 450
3 453 462 449
3 449 463 456
3 462 463 449
3 450 459 457
3 457 460 450
3 458 459 450
3 451 462 453
3 451 461 455
3 455 462 451
3 454 463 452
3 452 462 455
3 452 463 462
3 457 459 454
3 459 463 454
3 456 459 458
3 456 463 459
3 21 466 22
3 215 466 21
3 22 466 209
3 51 464 53
3 211 464 51
3 53 464 217
3 209 467 210
3 209 466 215
3 215 467 209
3 210 465 211
3 216 465 210
3 210 467 216
3 217 464 211
3 211 465 217
3 216 467 215
3 217 465 216
3 125 478 0
3 0 478 144
3 23 477 128
3 199 477 23
3 144 470 29
3 29 470 242
3 47 471 199
3 246 471 47
3 242 474 64
3 64 474 245
3 243 472 65
3 65 472 246
3 126 473 125
3 473 478 125
3 127 475 126
3 126 475 473
3 128 469 127
3 469 475 127
3 128 477 469
3 144 478 470
3 471 477 199
3 470 474 242
3 244 476 243
3 243 476 472
3 245 468 244
3 468 476 244
3 245 474 468
3 246 472 471
3 474 480 468
3 468 479 476
3 468 480 479
3 471 472 469
3 469 477 471
3 472 479 469
3 469 479 475
3 473 474 470
3 470 478 473
3 476 479 472
3 473 480 474
3 475 480 473
3 479 480 475
3 30 24 481
3 24 132 481
3 25 35 481
3 132 25 481
3 158 30 481
3 35 158 481
3 25 482 35
3 135 482 25
3 34 482 26
3 26 482 133
3 157 482 34
3 35 482 157
3 133 482 134
3 134 482 135
3 26 483 34
3 136 483 26
3 33 483 27
3 27 483 136
3 156 483 33
3 34 483 156
3 141 486 28
3 28 486 193
3 29 487 143
3 242 487 29
3 193 489 44
3 44 489 248
3 64 490 242
3 247 490 64
3 142 484 141
3 484 486 141
3 143 485 142
3 143 487 485
3 486 489 193
3 242 490 487
3 248 488 247
3 488 490 247
3 248 489 488
3 142 485 484
3 485 488 484
3 484 489 486
3 488 489 484
3 487 490 485
3 485 490 488
3 149 494 31
3 31 494 165
3 32 493 151
3 192 493 32
3 165 496 37
3 37 496 249
3 43 495 192
3 250 495 43
3 150 492 149
3 492 494 149
3 151 491 150
3 151 493 491
3 494 496 165
3 192 495 493
3 249 492 250
3 249 496 492
3 492 495 250
3 491 492 150
3 491 495 492
3 493 495 491
3 492 496 494
3 164 507 36
3 36 507 175
3 37 505 161
3 249 505 37
3 174 506 40
3 40 506 188
3 191 508 43
3 43 508 250
3 161 502 162
3 161 505 502
3 162 500 163
3 162 502 500
3 163 503 164
3 500 503 163
3 503 507 164
3 175 498 174
3 498 506 174
3 175 507 498
3 188 501 189
3 188 506 501
3 189 497 190
3 189 501 497
3 190 504 191
3 497 504 190
3 504 508 191
3 250 499 249
3 499 505 249
3 250 508 499
3 497 501 500
3 500 502 497
3 502 504 497
3 498 503 501
3 501 506 498
3 498 507 503
3 499 504 502
3 502 505 499
3 499 508 504
3 501 503 500
3 38 509 41
3 168 509 38
3 42 511 39
3 39 511 166
3 41 509 184
3 182 511 42
3 166 512 167
3 166 511 182
3 182 512 166
3 167 510 168
3 183 510 167
3 167 512 183
3 184 509 168
3 168 510 184
3 183 512 182
3 184 510 183
3 44 522 196
3 248 522 44
3 194 520 45
3 45 520 252
3 245 519 64
3 64 519 247
3 65 521 243
3 251 521 65
3 195 516 194
3 516 520 194
3 196 518 195
3 195 518 516
3 196 522 518
3 243 515 244
3 243 521 515
3 244 517 245
3 515 517 244
3 517 519 245
3 247 514 248
3 247 519 514
3 514 522 248
3 252 513 251
3 513 521 251
3 252 520 513
3 513 516 515
3 515 521 513
3 513 520 516
3 514 517 516
3 516 518 514
3 514 519 517
3 518 522 514
3 516 517 515
3 45 527 197
3 252 527 45
3 197 526 46
3 46 526 202
3 200 525 47
3 47 525 246
3 246 528 65
3 65 528 251
3 197 527 526
3 201 524 200
3 524 525 200
3 202 523 201
3 202 526 523
3 525 528 246
3 251 524 252
3 251 528 524
3 524 527 252
3 523 524 201
3 523 527 524
3 526 527 523
3 524 528 525
3 48 529 52
3 206 529 48
3 55 529 49
3 49 529 206
3 52 529 222
3 222 529 55
3 49 530 55
3 207 530 49
3 54 530 50
3 50 530 207
3 221 530 54
3 55 530 219
3 219 530 220
3 220 530 221
3 54 50 531
3 50 208 531
3 51 53 531
3 208 51 531
3 53 218 531
3 218 54 531
3 224 535 56
3 56 535 228
3 57 534 226
3 236 534 57
3 228 538 58
3 58 538 254
3 62 537 236
3 253 537 62
3 225 532 224
3 532 535 224
3 226 533 225
3 226 534 533
3 535 538 228
3 236 537 534
3 254 536 253
3 536 537 253
3 254 538 536
3 225 533 532
3 533 536 532
3 532 538 535
3 536 538 532
3 534 537 533
3 533 537 536
3 58 548 231
3 254 548 58
3 229 545 59
3 59 545 256
3 239 547 62
3 62 547 253
3 63 546 237
3 255 546 63
3 230 542 229
3 542 545 229
3 231 544 230
3 230 544 542
3 231 548 544
3 237 541 238
3 237 546 541
3 238 543 239
3 541 543 238
3 543 547 239
3 253 540 254
3 253 547 540
3 540 548 254
3 256 539 255
3 539 546 255
3 256 545 539
3 539 542 541
3 541 546 539
3 539 545 542
3 540 543 542
3 542 544 540
3 540 547 543
3 544 548 540
3 542 543 541
3 59 556 233
3 256 556 59
3 232 555 60
3 60 555 235
3 234 553 61
3 61 553 240
3 241 554 63
3 63 554 255
3 233 550 232
3 550 555 232
3 233 556 550
3 235 551 234
3 551 553 234
3 235 555 551
3 240 549 241
3 240 553 549
3 549 554 241
3 255 552 256
3 255 554 552
3 552 556 256
3 551 552 549
3 549 553 551
3 552 554 549
3 550 552 551
3 551 555 550
3 550 556 552
3 257 258 66
3 258 257 67
3 257 66 560
3 66 259 557
3 66 557 560
3 67 257 558
3 265 67 558
3 259 68 557
3 68 260 557
3 260 69 261
3 261 70 260
3 260 70 557
3 70 262 560
3 557 70 560
3 262 71 559
3 264 71 263
3 71 264 558
3 71 558 559
3 72 264 263
3 264 73 558
3 73 265 558
3 558 257 559
3 559 257 560
3 262 559 560
3 258 561 66
3 66 566 259
3 561 566 66
3 67 565 258
3 265 565 67
3 68 564 74
3 259 564 68
3 77 563 73
3 73 563 265
3 74 564 266
3 266 566 75
3 75 566 267
3 267 562 76
3 76 565 268
3 562 565 76
3 268 563 77
3 258 562 561
3 258 565 562
3 259 566 564
3 563 565 265
3 564 566 266
3 561 562 267
3 267 566 561
3 268 565 563
3 68 74 567
3 260 68 567
3 78 69 568
3 69 260 568
3 74 269 567
3 269 78 568
3 269 260 567
3 260 269 568
3 261 69 78
3 79 70 261
3 270 261 78
3 270 79 261
3 70 79 570
3 262 70 570
3 80 71 569
3 71 262 569
3 79 271 570
3 271 80 569
3 569 262 570
3 271 569 570
3 80 263 71
3 263 81 72
3 272 263 80
3 272 81 263
3 72 81 571
3 264 72 571
3 77 73 572
3 73 264 572
3 273 77 572
3 81 273 571
3 273 264 571
3 264 273 572
3 74 266 573
3 269 74 573
3 266 75 573
3 75 274 573
3 76 268 574
3 274 76 574
3 268 77 574
3 77 273 574
3 269 270 78
3 270 269 79
3 79 269 573
3 271 79 576
3 79 573 576
3 80 271 575
3 273 272 80
3 273 80 574
3 574 80 575
3 81 272 273
3 575 271 576
3 573 274 576
3 274 574 575
3 274 575 576
3 267 274 75
3 274 267 76
3 275 276 82
3 276 275 83
3 275 82 580
3 82 277 577
3 82 577 580
3 83 275 578
3 283 83 578
3 277 84 577
3 84 278 577
3 278 85 279
3 279 86 278
3 278 86 577
3 86 280 580
3 577 86 580
3 280 87 579
3 282 87 281
3 87 282 578
3 87 578 579
3 88 282 281
3 282 89 578
3 89 283 578
3 578 275 579
3 579 275 580
3 280 579 580
3 276 581 82
3 82 586 277
3 581 586 82
3 83 585 276
3 283 585 83
3 84 584 90
3 277 584 84
3 93 583 89
3 89 583 283
3 90 584 284
3 284 586 91
3 91 586 285
3 285 582 92
3 92 585 286
3 582 585 92
3 286 583 93
3 276 582 581
3 276 585 582
3 277 586 584
3 583 585 283
3 584 586 284
3 581 582 285
3 285 586 581
3 286 585 583
3 84 90 587
3 278 84 587
3 94 85 588
3 85 278 588
3 90 287 587
3 287 94 588
3 287 278 587
3 278 287 588
3 279 85 94
3 95 86 279
3 94 288 279
3 288 95 279
3 86 95 589
3 280 86 589
3 96 87 590
3 87 280 590
3 95 289 589
3 289 96 590
3 280 589 590
3 589 289 590
3 96 281 87
3 281 97 88
3 281 96 290
3 97 281 290
3 88 97 591
3 282 88 591
3 93 89 592
3 89 282 592
3 291 93 592
3 97 291 591
3 291 282 591
3 282 291 592
3 90 284 593
3 287 90 593
3 284 91 593
3 91 292 593
3 92 286 594
3 292 92 594
3 286 93 594
3 93 291 594
3 287 288 94
3 288 287 95
3 95 287 593
3 289 95 596
3 95 593 596
3 96 289 595
3 291 290 96
3 291 96 594
3 594 96 595
3 97 290 291
3 595 289 596
3 593 292 596
3 292 594 595
3 292 595 596
3 285 292 91
3 292 285 92
4 325 599 390 601
4 354 355 605 616
4 292 299 91 360
4 92 391 397 292
4 352 354 292 616
4 415 407 274 409
4 477 471 274 469
4 521 513 528 602
4 278 84 342 587
4 360 354 292 352
4 477 274 297 469
4 274 76 415 409
4 354 355 492 605
4 507 364 175 607
4 269 74 567 422
4 89 282 341 592
4 73 264 429 572
4 331 76 415 274
4 493 491 495 392
4 331 415 407 274
4 524 471 472 602
4 323 353 356 599
4 470 478 275 597
4 533 225 532 598
4 83 416 408 275
4 360 292 299 352
4 408 275 416 597
4 260 68 430 567
4 493 491 392 391
4 526 409 523 410
4 526 523 527 410
4 397 332 92 292
4 249 505 499 496
4 413 303 602 608
4 505 499 496 605
4 160 175 364 607
4 544 431 603 612
4 332 397 391 292
4 82 275 470 478
4 354 352 355 616
4 598 603 452 609
4 287 90 587 349
4 292 299 352 616
4 332 292 391 616
4 534 533 537 451
4 325 306 599 601
4 302 598 452 609
4 431 598 445 603
4 363 599 353 601
4 400 390 599 601
4 521 528 472 602
4 528 513 524 602
4 83 317 416 275
4 408 579 275 597
4 527 513 520 602
4 487 485 490 474
4 407 413 303 602
4 444 445 431 598
4 470 143 485 597
4 471 469 472 602
4 409 410 407 602
4 528 521 251 513
4 434 436 295 598
4 507 601 364 607
4 353 599 306 601
4 460 600 553 604
4 524 513 527 602
4 598 603 431 612
4 274 315 297 469
4 434 444 436 598
4 202 409 523 526
4 160 364 601 607
4 485 488 490 613
4 390 325 300 599
4 549 553 450 600
4 306 353 323 599
4 317 416 275 597
4 493 491 391 151
4 315 602 303 608
4 234 460 553 604
4 325 601 390 611
4 537 451 533 598
4 392 391 491 605
4 505 496 355 605
4 470 275 580 597
4 413 318 303 608
4 353 363 356 599
4 393 400 390 599
4 389 397 391 332
4 485 143 470 487
4 487 470 485 474
4 434 598 295 609
4 470 473 478 597
4 408 484 486 141
4 533 225 598 606
4 452 598 302 606
4 411 408 416 597
4 543 449 547 598
4 559 558 433 257
4 484 408 486 613
4 433 67 441 257
4 444 598 434 609
4 528 524 472 602
4 393 390 300 599
4 471 524 525 200
4 499 249 496 492
4 234 335 460 604
4 355 358 505 605
4 392 491 495 605
4 445 603 598 609
4 473 316 478 597
4 337 441 67 257
4 332 391 389 616
4 492 354 149 494
4 362 605 355 616
4 407 417 413 602
4 449 453 547 598
4 411 597 296 608
4 433 558 67 257
4 418 597 411 608
4 436 441 337 598
4 485 490 474 597
4 527 520 410 602
4 462 598 452 606
4 496 499 492 605
4 413 411 296 608
4 358 362 599 605
4 437 431 445 603
4 251 524 528 513
4 470 580 143 597
4 503 500 357 601
4 445 598 444 609
4 484 597 408 613
4 449 598 543 603
4 534 533 451 226
4 394 400 388 599
4 357 351 363 599
4 413 418 411 608
4 470 485 474 597
4 295 598 302 609
4 274 331 267 297
4 433 224 532 535
4 304 478 316 597
4 77 273 572 421
4 93 291 592 350
4 252 520 527 513
4 82 275 580 470
4 515 476 468 602
4 500 599 357 601
4 455 462 452 606
4 357 599 363 601
4 400 599 394 601
4 418 413 417 608
4 299 292 332 616
4 441 436 433 598
4 159 379 373 611
4 497 394 388 599
4 357 500 351 599
4 159 359 361 611
4 496 492 355 605
4 480 597 468 615
4 501 394 599 601
4 376 601 373 611
4 457 600 460 604
4 325 306 300 599
4 455 452 302 606
4 358 355 362 605
4 480 468 608 615
4 175 498 507 607
4 389 391 605 616
4 313 352 299 616
4 542 544 431 603
4 317 411 416 597
4 388 395 504 605
4 517 597 519 615
4 358 502 505 605
4 370 5 365 176
4 8 169 387 366
4 486 489 484 613
4 532 535 538 612
4 454 452 603 609
4 457 460 327 604
4 362 355 352 616
4 468 597 517 615
4 391 594 595 292
4 596 292 593 354
4 325 306 601 611
4 492 496 355 494
4 469 602 315 608
4 551 553 549 600
4 356 323 599 616
4 327 460 335 604
4 274 575 574 409
4 274 471 573 576
4 480 608 597 615
4 457 327 600 604
4 579 578 408 275
4 524 252 527 513
4 300 306 323 599
4 454 452 463 603
4 532 433 535 612
4 376 160 601 607
4 285 332 299 292
4 361 353 306 601
4 540 544 603 612
4 472 525 524 528
4 364 507 503 601
4 451 533 598 606
4 462 598 449 603
4 602 608 468 615
4 361 601 306 611
4 547 453 537 612
4 413 602 417 608
4 553 600 551 604
4 532 598 433 612
4 498 601 507 607
4 594 391 92 292
4 160 364 359 601
4 234 293 335 604
4 515 521 476 602
4 76 274 574 409
4 362 599 605 616
4 83 408 578 275
4 359 601 361 611
4 485 490 597 613
4 379 376 373 611
4 454 603 600 609
4 524 525 472 471
4 459 600 454 603
4 488 485 484 613
4 536 533 532 612
4 300 599 323 616
4 436 337 295 598
4 445 444 434 609
4 491 492 495 605
4 480 468 479 608
4 413 296 318 608
4 331 274 315 297
4 355 354 492 494
4 468 602 479 608
4 437 542 431 603
4 357 364 503 601
4 476 479 468 602
4 394 497 501 599
4 550 556 432 610
4 521 472 476 602
4 317 296 411 597
4 358 599 502 605
4 485 597 484 613
4 453 451 537 598
4 463 462 449 603
4 439 435 294 609
4 418 597 608 615
4 479 602 469 608
4 431 444 598 612
4 388 504 599 605
4 216 467 430 215
4 346 342 130 129
4 307 306 333 611
4 439 294 600 609
4 318 315 303 608
4 451 226 533 606
4 361 359 353 601
4 445 437 603 610
4 453 598 537 612
4 480 474 468 597
4 547 598 453 612
4 131 130 344 29
4 210 211 465 47
4 138 137 405 28
4 203 204 426 46
4 325 333 306 611
4 54 50 530 570
4 247 490 488 613
4 253 537 536 612
4 540 603 598 612
4 552 556 550 610
4 519 490 247 613
4 253 547 537 612
4 139 403 341 138
4 213 214 429 424
4 346 146 349 145
4 210 422 467 209
4 454 320 452 609
4 321 455 302 606
4 550 432 600 610
4 356 599 362 616
4 335 293 327 604
4 540 543 547 598
4 434 295 322 609
4 543 598 540 603
4 432 556 440 610
4 507 498 503 601
4 449 462 453 598
4 153 154 405 32
4 147 146 31 344
4 217 216 465 57
4 414 410 520 602
4 503 501 500 601
4 299 332 313 616
4 212 213 56 426
4 337 295 598 606
4 351 502 358 599
4 316 296 317 597
4 501 599 500 601
4 542 540 544 603
4 307 361 306 611
4 459 454 463 603
4 234 553 551 604
4 393 599 300 616
4 538 535 433 612
4 410 417 407 602
4 472 469 479 602
4 295 302 322 609
4 82 580 577 470
4 444 433 436 598
4 351 358 362 599
4 302 452 320 609
4 569 55 49 530
4 25 35 482 589
4 533 598 532 612
4 454 600 320 609
4 396 390 601 611
4 9 173 366 383
4 389 391 392 605
4 515 513 521 602
4 159 4 365 381
4 294 326 439 600
4 388 504 497 599
4 359 363 353 601
4 400 396 390 601
4 454 457 320 600
4 550 600 432 604
4 549 600 450 614
4 517 519 514 615
4 540 598 547 612
4 296 597 316 608
4 505 502 499 605
4 552 550 600 610
4 432 442 439 600
4 437 542 603 610
4 412 489 486 613
4 454 459 457 600
4 450 457 459 600
4 364 357 359 601
4 356 362 352 616
4 54 78 531 50
4 486 408 412 613
4 356 313 323 616
4 320 457 327 600
4 520 516 414 602
4 317 276 304 316
4 234 447 293 604
4 401 394 506 607
4 399 599 393 616
4 335 234 447 293
4 417 602 414 615
4 412 408 597 613
4 475 305 469 127
4 479 469 475 608
4 472 479 476 602
4 417 410 414 602
4 462 451 453 598
4 543 456 449 603
4 442 600 432 610
4 78 54 531 69
4 250 492 499 605
4 445 603 609 610
4 359 357 363 601
4 400 394 396 601
4 462 451 598 606
4 470 474 473 597
4 356 363 362 599
4 393 399 400 599
4 433 598 444 612
4 550 551 552 600
4 552 551 549 600
4 412 408 411 597
4 450 600 459 614
4 313 356 352 616
4 305 315 469 127
4 433 444 438 612
4 473 316 597 608
4 502 599 504 605
4 432 600 439 604
4 456 543 541 603
4 595 594 391 151
4 593 149 596 354
4 549 552 600 614
4 69 260 217 568
4 574 575 202 409
4 471 573 576 200
4 542 543 540 603
4 320 600 294 609
4 495 492 250 605
4 100 356 323 353
4 550 551 600 604
4 535 538 433 228
4 600 603 459 614
4 480 473 597 608
4 326 439 600 604
4 395 504 190 388
4 473 474 480 597
4 388 400 399 599
4 363 351 362 599
4 335 446 234 460
4 324 332 389 616
4 497 500 501 599
4 538 433 438 612
4 412 597 418 615
4 552 256 556 610
4 411 418 412 597
4 501 503 498 601
4 445 609 442 610
4 516 414 602 615
4 394 601 501 607
4 417 414 406 615
4 238 543 456 449
4 509 41 184 382
4 500 502 351 599
4 294 320 326 600
4 42 380 511 182
4 323 313 356 99
4 504 502 497 599
4 251 252 524 513
4 506 394 501 607
4 520 513 516 602
4 475 305 126 608
4 110 413 411 296
4 475 126 473 608
4 250 508 495 605
4 495 508 392 605
4 600 442 609 610
4 550 432 555 604
4 431 438 444 612
4 331 76 274 267
4 376 607 601 611
4 387 185 7 383
4 399 605 599 616
4 370 381 6 179
4 257 258 337 606
4 396 601 394 607
4 543 541 238 456
4 456 603 541 614
4 181 41 367 382
4 297 267 274 75
4 36 364 160 175
4 327 326 600 604
4 433 558 224 535
4 459 603 456 614
4 285 92 332 292
4 384 380 42 187
4 173 396 172 607
4 173 396 607 611
4 516 602 515 615
4 399 389 605 616
4 456 463 449 603
4 250 499 508 605
4 406 518 613 615
4 305 315 318 608
4 257 67 337 258
4 316 126 305 608
4 320 327 326 600
4 455 121 302 452
4 490 487 474 242
4 486 412 193 489
4 417 406 418 615
4 313 356 99 352
4 470 577 82 478
4 546 456 541 614
4 437 431 542 230
4 256 539 610 614
4 173 172 377 607
4 377 173 607 611
4 378 512 182 183
4 249 499 250 492
4 434 436 114 295
4 299 91 285 292
4 459 463 456 603
4 390 106 393 300
4 412 613 597 615
4 300 390 106 325
4 473 126 316 608
4 552 610 600 614
4 116 439 435 294
4 538 438 433 228
4 186 187 374 385
4 476 468 244 515
4 359 373 159 160
4 442 432 440 610
4 175 174 498 607
4 323 306 100 353
4 438 431 544 612
4 291 97 591 32
4 556 256 545 610
4 510 183 371 184
4 544 548 438 612
4 549 450 554 614
4 110 413 296 318
4 412 406 518 613
4 393 324 389 616
4 364 36 507 175
4 541 603 539 614
4 513 515 516 602
4 173 383 298 611
4 298 338 398 611
4 546 458 456 614
4 501 601 498 607
4 510 175 167 168
4 166 167 512 174
4 9 173 383 298
4 256 610 552 614
4 396 394 401 607
4 457 454 320 123
4 396 398 390 611
4 395 508 504 605
4 458 554 450 614
4 542 431 544 230
4 442 445 435 609
4 392 399 389 605
4 233 440 432 556
4 458 554 241 450
4 316 473 478 125
4 303 407 111 413
4 77 273 421 198
4 500 357 351 163
4 500 503 357 163
4 351 358 502 162
4 192 493 495 392
4 518 522 412 613
4 93 291 350 152
4 398 325 390 611
4 320 327 457 123
4 458 237 546 456
4 440 556 545 610
4 398 338 325 611
4 544 438 548 231
4 296 316 318 608
4 560 226 451 606
4 379 307 298 611
4 516 515 517 615
4 373 179 368 180
4 519 245 474 468
4 445 442 437 610
4 174 175 378 607
4 322 115 435 294
4 377 607 376 611
4 298 398 173 611
4 527 526 410 197
4 181 369 180 375
4 554 549 241 450
4 550 233 432 556
4 506 174 40 607
4 506 40 401 607
4 329 583 286 585
4 131 24 132 343
4 211 208 51 464
4 501 498 506 607
4 395 392 508 605
4 494 496 355 165
4 386 186 185 377
4 603 610 539 614
4 406 412 418 615
4 394 189 497 388
4 431 438 544 231
4 500 497 502 599
4 112 415 407 331
4 307 379 381 159
4 302 321 121 455
4 256 539 545 610
4 48 206 203 425
4 27 137 136 404
4 33 156 153 404
4 52 212 222 425
4 276 317 83 275
4 383 372 298 611
4 493 391 594 151
4 111 303 413 318
4 304 316 478 125
4 439 116 326 294
4 406 613 412 615
4 393 107 389 324
4 555 432 443 604
4 504 497 190 388
4 368 176 159 177
4 173 386 170 169
4 202 574 409 526
4 525 472 246 528
4 217 53 218 464
4 147 158 30 343
4 577 580 143 470
4 435 434 115 322
4 474 487 470 242
4 193 412 486 408
4 239 547 449 453
4 468 517 244 515
4 376 373 160 375
4 188 506 401 394
4 192 493 392 391
4 168 36 38 509
4 40 39 511 166
4 324 313 332 616
4 542 539 541 603
4 503 507 364 164
4 412 522 518 196
4 199 23 266 419
4 393 300 324 616
4 245 519 517 468
4 480 475 473 608
4 560 557 451 226
4 516 406 414 615
4 446 234 447 335
4 601 607 396 611
4 458 459 456 614
4 298 307 333 611
4 447 448 336 235
4 159 4 381 307
4 514 519 247 613
4 540 547 253 612
4 550 555 551 604
4 372 379 298 611
4 62 537 253 547
4 148 3 284 347
4 393 389 399 616
4 173 372 383 611
4 40 172 401 607
4 447 235 551 234
4 488 248 247 613
4 253 536 254 612
4 414 516 195 406
4 143 577 470 487
4 372 376 379 611
4 237 541 546 456
4 410 526 409 197
4 539 603 542 610
4 435 322 294 609
4 371 378 175 607
4 385 171 172 170
4 177 369 178 160
4 2 345 347 145
4 534 451 557 226
4 337 321 295 606
4 490 519 64 474
4 333 325 338 611
4 557 560 451 606
4 528 472 65 521
4 295 114 434 322
4 303 112 407 331
4 103 298 379 307
4 505 358 355 161
4 42 380 384 511
4 543 542 541 603
4 377 376 372 611
4 364 357 503 164
4 209 22 419 466
4 327 335 460 124
4 450 459 458 614
4 316 305 318 608
4 336 447 235 604
4 140 13 283 340
4 39 40 384 171
4 178 38 36 367
4 447 446 335 118
4 547 543 239 449
4 43 495 508 392
4 389 108 397 332
4 448 336 119 447
4 522 489 412 613
4 578 408 486 141
4 435 434 322 609
4 37 355 505 496
4 63 546 554 458
4 32 97 591 153
4 301 461 120 606
4 546 541 539 614
4 437 545 542 610
4 518 406 412 196
4 436 441 113 337
4 312 314 562 561
4 336 293 447 604
4 406 516 195 518
4 234 551 447 604
4 600 609 603 610
4 319 330 582 581
4 301 337 258 606
4 557 461 66 606
4 502 358 505 161
4 62 537 547 453
4 324 393 107 300
4 58 438 548 538
4 475 480 479 608
4 489 412 44 522
4 499 502 504 605
4 306 307 101 361
4 4 159 361 307
4 551 235 447 604
4 527 520 45 410
4 191 508 395 392
4 440 545 437 610
4 518 406 516 615
4 555 232 432 550
4 240 450 549 553
4 554 458 546 614
4 553 240 450 460
4 443 555 232 432
4 0 144 277 339
4 336 235 448 604
4 103 298 372 379
4 497 501 189 394
4 117 336 443 604
4 460 457 327 124
4 443 439 117 604
4 175 371 375 382
4 327 293 326 604
4 476 472 521 243
4 508 504 191 395
4 332 389 108 324
4 494 355 354 165
4 435 445 434 609
4 20 227 259 427
4 354 593 149 494
4 506 188 501 394
4 499 504 508 605
4 348 11 155 402
4 15 423 205 420
4 353 306 101 361
4 573 471 525 200
4 549 554 552 614
4 556 59 440 545
4 502 500 351 162
4 461 455 120 606
4 443 432 439 604
4 462 455 451 606
4 371 376 378 607
4 553 234 446 460
4 235 448 443 555
4 235 555 443 604
4 298 383 9 104
4 307 102 4 381
4 312 314 561 309
4 301 321 337 606
4 64 247 519 490
4 546 255 63 554
4 21 215 427 466
4 246 472 525 471
4 563 268 328 334
4 337 113 436 295
4 438 548 538 612
4 395 399 392 605
4 557 451 461 606
4 367 41 509 382
4 118 335 447 293
4 339 345 1 129
4 16 423 428 214
4 340 139 12 402
4 379 102 307 381
4 322 302 320 609
4 14 198 268 420
4 557 66 560 606
4 300 323 313 616
4 546 255 554 614
4 447 336 119 293
4 117 326 336 604
4 536 532 538 612
4 484 489 488 613
4 443 336 448 604
4 338 105 398 325
4 439 326 117 604
4 545 440 437 229
4 433 56 558 535
4 443 448 235 604
4 545 437 542 229
4 322 320 294 609
4 411 109 110 296
4 10 152 286 348
4 92 10 286 585
4 374 376 377 607
4 223 17 265 428
4 66 461 301 606
4 590 157 289 482
4 570 207 530 271
4 600 610 603 614
4 172 374 377 607
4 128 469 315 127
4 259 309 20 564
4 476 521 515 243
4 116 435 115 294
4 535 433 56 228
4 43 495 250 508
4 172 187 171 385
4 545 556 59 256
4 4 365 381 370
4 254 58 548 538
4 104 298 383 372
4 78 269 200 270
4 282 88 281 141
4 143 278 85 279
4 94 287 149 288
4 383 9 387 366
4 391 32 493 594
4 589 157 482 289
4 569 207 271 530
4 410 520 194 414
4 437 542 229 230
4 520 516 194 414
4 409 574 46 526
4 566 309 564 266
4 120 301 20 461
4 378 380 174 374
4 519 245 64 474
4 65 528 521 251
4 586 308 584 284
4 541 237 238 456
4 300 313 324 616
4 521 472 65 243
4 257 560 66 606
4 44 193 412 489
4 474 64 490 242
4 105 390 398 325
4 113 114 436 295
4 301 66 20 461
4 518 516 514 615
4 506 498 174 607
4 45 252 520 527
4 377 372 173 611
4 358 502 162 161
4 76 415 14 331
4 396 401 172 607
4 440 437 442 610
4 355 37 505 161
4 493 192 32 391
4 508 191 43 392
4 321 301 120 606
4 410 45 527 197
4 516 195 194 414
4 98 313 99 352
4 164 357 503 163
4 473 316 126 125
4 46 409 526 197
4 58 438 538 228
4 545 539 542 610
4 460 335 446 124
4 396 173 398 611
4 495 43 192 392
4 543 238 239 449
4 448 60 443 555
4 61 553 446 460
4 117 443 336 448
4 454 122 320 123
4 65 246 472 528
4 546 63 237 458
4 75 297 23 477
4 522 248 489 613
4 548 254 538 612
4 319 330 581 308
4 335 19 446 124
4 516 517 514 615
4 37 355 496 165
4 374 174 378 607
4 67 17 441 337
4 584 308 586 277
4 504 190 191 395
4 120 455 321 606
4 522 412 44 196
4 547 239 62 453
4 336 18 117 448
4 415 112 14 331
4 548 438 58 231
4 451 57 534 557
4 114 115 434 322
4 501 188 189 394
4 286 10 329 585
4 304 82 0 478
4 302 121 122 452
4 60 448 235 555
4 234 61 553 446
4 439 116 117 326
4 518 514 613 615
4 63 554 241 458
4 451 455 461 606
4 561 314 258 309
4 59 440 233 556
4 260 217 465 57
4 253 254 540 612
4 248 514 247 613
4 487 29 470 242
4 486 28 193 408
4 428 16 17 328
4 101 307 4 361
4 407 111 112 303
4 552 554 255 614
4 478 0 304 125
4 249 37 505 496
4 298 333 338 611
4 173 170 386 377
4 260 226 557 70
4 278 143 577 86
4 368 159 373 177
4 534 236 57 451
4 360 91 593 148
4 360 299 3 98
4 103 379 102 307
4 451 557 461 227
4 360 593 354 148
4 327 457 123 124
4 539 255 546 614
4 314 301 258 309
4 267 312 561 309
4 36 364 507 164
4 551 555 235 604
4 299 3 91 360
4 32 151 493 594
4 46 574 202 526
4 231 544 431 230
4 477 297 23 128
4 520 194 45 410
4 181 178 369 375
4 443 117 18 448
4 460 446 19 124
4 522 44 489 248
4 105 398 9 338
4 573 75 199 477
4 420 14 15 328
4 186 386 170 377
4 413 110 111 318
4 180 368 373 177
4 187 172 374 385
4 570 207 50 530
4 590 157 482 34
4 281 282 141 87
4 270 269 200 79
4 143 278 279 86
4 288 287 149 95
4 331 14 76 312
4 332 10 397 92
4 23 297 75 309
4 321 120 121 455
4 107 108 389 324
4 20 66 301 309
4 101 100 306 353
4 244 245 517 468
4 569 207 530 49
4 589 157 35 482
4 332 319 10 92
4 62 236 537 453
4 175 167 174 183
4 99 356 323 100
4 381 6 4 370
4 374 378 376 607
4 66 258 257 606
4 494 354 31 165
4 199 471 573 477
4 561 258 66 309
4 408 486 28 578
4 387 7 9 383
4 310 20 309 564
4 557 66 461 227
4 113 441 17 337
4 525 47 246 471
4 13 109 416 317
4 390 105 106 325
4 47 199 269 422
4 28 140 282 341
4 144 29 278 342
4 317 416 13 83
4 70 557 560 226
4 580 143 86 577
4 118 447 119 293
4 312 267 297 309
4 397 108 10 332
4 349 31 287 148
4 267 566 309 561
4 174 378 175 183
4 518 514 522 613
4 544 540 548 612
4 66 301 258 606
4 310 23 22 419
4 160 178 36 382
4 549 241 450 240
4 233 432 232 550
4 470 577 478 144
4 305 475 126 127
4 276 330 317 304
4 430 260 57 227
4 259 566 309 564
4 421 46 198 273
4 515 244 476 243
4 384 380 40 511
4 189 190 497 388
4 82 581 276 304
4 558 223 56 433
4 350 32 152 291
4 75 297 267 309
4 276 582 330 581
4 200 269 573 79
4 287 149 95 593
4 141 282 578 87
4 443 18 60 448
4 19 61 446 460
4 311 3 2 347
4 478 577 82 144
4 106 107 393 300
4 187 380 172 171
4 258 301 66 309
4 354 31 593 494
4 160 369 178 375
4 260 217 568 465
4 314 562 334 312
4 79 576 573 200
4 95 149 596 593
4 151 595 594 96
4 202 80 575 574
4 380 40 172 171
4 518 195 406 196
4 351 500 163 162
4 349 587 146 346
4 467 430 567 216
4 471 525 47 573
4 254 536 538 612
4 489 248 488 613
4 506 40 188 401
4 308 3 91 299
4 224 56 535 558
4 131 132 85 343
4 208 211 78 464
4 429 572 213 424
4 403 592 341 138
4 567 422 467 210
4 587 342 130 346
4 222 212 72 425
4 153 156 97 404
4 136 137 88 404
4 203 206 81 425
4 14 334 76 312
4 326 293 336 604
4 281 483 26 88
4 290 483 97 34
4 217 218 69 464
4 158 147 94 343
4 582 285 319 581
4 308 82 0 304
4 225 262 559 560
4 280 579 142 580
4 154 592 403 138
4 572 204 213 424
4 130 146 587 346
4 216 567 467 210
4 340 12 13 329
4 67 17 337 314
4 17 67 265 334
4 17 67 334 314
4 365 381 370 179
4 383 387 185 366
4 553 61 240 460
4 60 443 555 232
4 330 329 10 585
4 566 267 309 75
4 561 562 312 267
4 265 563 73 328
4 590 157 34 289
4 570 207 271 50
4 308 0 82 277
4 367 509 36 382
4 178 160 375 382
4 589 157 289 35
4 569 207 49 271
4 545 59 440 229
4 378 371 175 183
4 168 184 175 382
4 334 268 14 76
4 103 298 104 372
4 429 223 56 264
4 174 512 182 378
4 375 181 178 382
4 328 268 14 334
4 581 285 319 308
4 586 91 308 284
4 581 82 308 304
4 585 92 319 582
4 7 9 383 104
4 371 175 183 510
4 173 383 372 377
4 308 91 3 284
4 558 56 223 264
4 346 349 587 145
4 567 430 467 215
4 92 332 319 285
4 336 119 18 448
4 586 285 581 308
4 308 285 319 299
4 102 6 4 381
4 348 10 11 329
4 335 446 19 118
4 186 374 172 385
4 378 174 512 183
4 467 422 567 209
4 592 139 403 341
4 429 214 572 424
4 346 587 342 129
4 301 337 314 258
4 97 281 483 290
4 565 258 562 314
4 168 175 36 382
4 166 182 380 174
4 172 374 380 187
4 20 66 309 259
4 381 379 373 159
4 563 268 334 565
4 308 91 285 299
4 345 339 84 129
4 182 166 512 174
4 175 510 184 168
4 371 175 510 184
4 76 331 312 267
4 281 97 483 88
4 331 312 267 297
4 67 265 334 565
4 177 159 373 160
4 219 225 262 559
4 142 133 579 280
4 129 346 587 145
4 215 467 567 209
4 403 155 139 592
4 214 205 572 424
4 427 215 68 466
4 289 150 595 596
4 201 576 575 271
4 173 172 170 377
4 183 175 167 510
4 167 512 174 183
4 548 540 254 612
4 248 522 514 613
4 285 332 319 299
4 268 334 565 76
4 330 317 13 83
4 464 69 217 568
4 568 211 464 78
4 343 588 85 131
4 268 77 563 328
4 139 340 89 402
4 428 423 73 214
4 343 94 588 147
4 380 40 166 174
4 425 571 81 203
4 425 72 571 212
4 591 404 153 97
4 591 137 404 88
4 73 16 428 328
4 82 586 308 277
4 586 285 308 91
4 565 258 314 67
4 276 585 330 582
4 339 1 345 84
4 271 570 569 530
4 482 289 590 589
4 427 68 21 466
4 334 265 563 565
4 217 211 464 568
4 371 175 184 382
4 565 334 562 312
4 314 337 67 258
4 334 565 562 314
4 170 172 186 377
4 373 180 177 160
4 588 343 147 131
4 425 571 203 212
4 404 153 137 591
4 77 205 423 420
4 155 93 348 402
4 89 340 12 402
4 73 16 423 428
4 174 182 380 378
4 15 77 420 328
4 509 184 36 382
4 330 13 329 585
4 562 314 258 561
4 310 564 266 74
4 367 36 181 382
4 562 76 565 312
4 159 373 179 368
4 334 565 76 312
4 11 93 348 329
4 185 173 386 377
4 186 172 374 377
4 511 380 40 182
4 182 40 511 166
4 168 184 36 509
4 585 276 330 83
4 181 178 36 367
4 423 15 77 420
4 348 93 11 402
4 311 584 284 90
4 423 16 73 328
4 200 208 211 78
4 149 158 147 94
4 218 226 217 69
4 132 143 131 85
4 203 206 202 81
4 153 156 151 97
4 137 141 136 88
4 212 224 222 72
4 15 423 77 328
4 40 380 384 187
4 187 384 40 171
4 160 180 369 375
4 176 365 370 179
4 169 185 387 366
4 131 588 29 344
4 15 16 423 328
4 32 405 153 591
4 319 330 585 582
4 137 405 28 591
4 309 66 566 259
4 31 588 147 344
4 405 137 153 591
4 571 203 212 426
4 131 147 588 344
4 83 330 317 276
4 211 465 47 568
4 211 217 465 568
4 373 180 160 375
4 213 204 572 264
4 291 592 154 138
4 130 146 278 587
4 216 269 567 210
4 383 185 173 366
4 365 381 179 159
4 384 40 39 511
4 509 36 38 367
4 509 38 41 367
4 568 464 69 78
4 384 39 42 511
4 85 94 588 343
4 77 423 73 328
4 365 4 5 370
4 387 9 8 366
4 567 430 260 216
4 587 146 287 349
4 571 81 72 425
4 97 591 404 88
4 277 584 311 84
4 329 11 93 402
4 285 319 92 582
4 571 264 273 426
4 282 405 291 591
4 583 286 93 329
4 12 340 89 329
4 329 12 11 402
4 567 74 215 209
4 587 90 129 145
4 205 73 214 572
4 139 155 93 592
4 282 341 592 138
4 213 572 429 264
4 567 269 422 210
4 342 130 278 587
4 287 278 588 344
4 421 572 204 273
4 291 592 350 154
4 260 269 465 568
4 329 89 12 402
4 74 266 23 419
4 179 176 365 159
4 185 169 173 366
4 312 562 76 267
4 90 284 3 347
4 68 20 259 427
4 339 277 0 84
4 68 430 567 215
4 405 32 291 591
4 282 28 405 591
4 565 334 67 314
4 21 68 310 466
4 283 583 89 329
4 592 291 282 138
4 204 572 264 273
4 567 260 269 216
4 287 278 146 587
4 278 146 130 344
4 216 465 269 210
4 264 204 426 213
4 154 405 291 138
4 74 215 209 466
4 129 90 345 145
4 214 423 73 205
4 155 139 93 402
4 22 74 419 466
4 40 380 187 171
4 2 345 90 347
4 278 29 588 344
4 287 588 31 344
4 84 342 587 129
4 566 561 66 309
4 581 82 586 308
4 181 36 178 382
4 329 93 89 402
4 182 380 40 166
4 269 47 465 568
4 179 381 373 159
4 90 587 349 145
4 36 184 168 382
4 22 310 74 466
4 311 345 1 84
4 173 185 383 377
4 74 567 422 209
4 592 89 139 341
4 572 73 214 429
4 283 340 13 329
4 310 22 21 466
4 68 567 74 215
4 587 90 84 129
4 283 89 340 329
4 572 205 77 421
4 350 93 155 592
4 2 345 311 90
4 8 7 9 387
4 6 5 4 370
4 1 2 345 311
4 23 310 266 74
4 369 177 180 160
4 93 89 139 592
4 73 205 77 572
4 74 310 68 466
4 385 172 186 170
4 215 74 68 466
4 84 90 345 129
4 146 278 287 344
4 260 465 269 216
4 282 291 405 138
4 204 264 426 273
4 345 311 90 84
4 30 158 481 343
4 464 53 218 531
4 3 311 284 90
4 222 529 52 425
4 27 404 136 483
4 156 404 33 483
4 48 529 206 425
4 208 51 464 531
4 24 481 132 343
4 209 419 74 466
4 139 89 93 402
4 205 423 73 77
4 345 90 347 145
4 277 311 0 84
4 75 573 199 266
4 283 140 578 83
4 159 179 176 368
4 169 173 386 185
4 284 593 91 148
4 74 310 22 419
4 23 310 74 419
4 218 69 464 531
4 481 158 94 343
4 90 311 2 347
4 483 156 404 97
4 404 136 483 88
4 206 529 81 425
4 72 529 222 425
4 464 208 531 78
4 132 481 85 343
4 342 144 339 84
4 280 482 590 589
4 570 262 569 530
4 51 53 464 531
4 24 30 481 343
4 529 72 81 425
4 97 404 483 88
4 531 69 464 78
4 94 85 481 343
4 404 27 33 483
4 529 48 52 425
4 76 268 198 574
4 74 422 199 419
4 3 311 90 347
4 594 152 286 92
4 227 430 68 427
4 55 529 222 72
4 529 81 49 206
4 483 26 88 136
4 54 531 69 218
4 78 531 50 208
4 481 25 132 85
4 34 483 97 156
4 35 481 158 94
4 90 349 148 347
4 340 89 140 341
4 277 82 577 144
4 77 420 198 421
4 287 31 146 344
4 260 57 465 216
4 291 32 405 154
4 273 204 46 426
4 405 28 282 138
4 278 130 29 344
4 465 47 269 210
4 66 557 259 227
4 93 348 152 350
4 56 213 264 426
4 419 74 422 209
4 347 90 349 145
4 261 79 570 70
4 87 590 281 96
4 80 569 71 263
4 279 95 589 86
4 67 223 265 558
4 215 68 430 427
4 84 339 342 129
4 79 261 570 270
4 590 290 281 96
4 80 272 569 263
4 95 279 589 288
4 140 89 340 283
4 73 428 214 429
4 89 340 139 341
4 199 266 74 419
4 90 148 284 347
4 339 144 277 84
4 291 350 32 154
4 204 46 421 273
4 227 68 259 427
4 428 73 223 429
4 420 77 205 421
4 348 93 155 350
4 77 420 268 198
4 152 348 93 286
4 563 77 73 328
4 55 219 262 559
4 133 26 579 280
4 287 146 31 349
4 29 130 278 342
4 422 269 47 210
4 57 260 430 216
4 28 341 282 138
4 429 56 213 264
4 223 73 428 265
4 288 289 35 589
4 272 569 49 271
4 570 270 50 271
4 590 289 34 290
4 569 272 80 271
4 569 262 71 263
4 288 95 289 589
4 86 279 280 589
4 87 281 590 280
4 79 270 570 271
4 290 590 289 96
4 261 262 70 570
4 564 310 68 74
4 90 311 584 84
4 583 93 89 329
4 71 55 262 559
4 87 579 26 280
4 87 26 281 280
4 262 55 71 263
4 289 150 35 157
4 201 207 50 271
4 49 207 201 271
4 34 150 289 157
4 200 50 208 78
4 202 49 81 206
4 149 94 35 158
4 72 55 224 222
4 88 136 26 141
4 69 54 218 226
4 85 143 25 132
4 156 34 151 97
4 263 55 71 224
4 281 141 26 87
4 50 200 270 78
4 202 81 49 272
4 69 54 226 261
4 290 151 34 97
4 143 25 279 85
4 35 288 94 149
4 263 72 55 224
4 26 88 141 281
4 274 297 75 477
4 484 485 142 597
4 410 523 527 602
4 523 524 527 602
4 315 469 274 602
4 407 303 331 602
4 303 315 331 602
4 274 407 331 602
4 274 331 315 602
4 471 274 469 602
4 409 407 274 602
4 409 523 410 602
4 523 201 524 602
4 274 471 576 602
4 524 200 471 602
4 471 200 576 602
4 150 492 491 605
4 595 391 292 605
4 292 605 391 616
4 596 292 354 616
4 596 354 605 616
4 596 605 292 616
4 600 460 450 457
4 600 450 460 553
4 597 143 142 580
4 597 142 143 485
4 225 226 606 533
4 225 606 226 560
4 611 359 373 159
4 611 373 359 601
4 417 608 615 418
4 615 608 417 602
4 67 433 223 558
4 223 433 67 441
4 468 519 597 474
4 468 597 519 517
4 580 579 597 275
4 580 597 579 142
4 204 205 572 421
4 204 572 205 424
4 154 155 592 350
4 154 592 155 403
4 603 462 452 463
4 603 452 462 598
4 373 601 160 359
4 160 601 373 376
4 257 606 559 560
4 225 559 606 560
4 225 606 559 598
4 605 388 399 599
4 605 399 388 395
4 317 597 276 316
4 317 276 597 275
4 304 276 597 316
4 615 515 468 602
4 615 468 515 517
4 302 606 295 321
4 295 606 302 598
4 297 469 128 477
4 128 469 297 315
4 597 519 490 474
4 597 490 519 613
4 375 175 607 371
4 607 175 375 160
4 607 376 375 371
4 375 376 607 160
4 451 537 236 453
4 451 236 537 534
4 613 519 615 514
4 613 615 519 597
4 612 533 537 536
4 612 537 533 598
4 609 439 442 600
4 609 442 439 435
4 299 352 98 360
4 98 352 299 313
4 307 159 611 379
4 611 159 307 361
4 305 469 608 475
4 608 469 305 315
4 199 74 269 422
4 140 89 282 341
4 317 411 109 416
4 317 109 411 296
4 148 90 287 349
4 408 83 140 416
4 140 83 408 578
4 409 76 198 574
4 409 198 76 415
4 573 477 274 75
4 274 477 573 471
4 84 144 278 342
4 452 320 122 302
4 452 122 320 454
4 68 227 260 430
4 298 398 9 173
4 298 9 398 338
4 593 360 292 91
4 292 360 593 354
4 391 92 152 594
4 152 92 391 397
4 223 73 264 429
4 614 256 255 552
4 614 255 256 539
4 227 20 66 461
4 227 66 20 259
4 23 199 75 477
4 23 75 199 266
4 13 140 83 416
4 13 83 140 283
4 3 148 91 360
4 3 91 148 284
4 144 0 82 478
4 144 82 0 277
4 198 14 76 415
4 198 76 14 268
4 564 20 68 310
4 564 68 20 259
4 152 10 92 397
4 152 92 10 286
4 311 277 308 584
4 308 277 311 0
4 260 226 217 57
4 329 283 585 13
4 329 585 283 583
4 607 172 174 40
4 607 174 172 374
4 380 174 172 40
4 380 172 174 374
4 17 223 67 441
4 17 67 223 265
4 557 57 226 260
4 557 226 57 534
4 261 226 260 70
4 143 29 577 487
4 143 577 29 278
4 470 577 29 487
4 28 141 578 486
4 28 578 141 282
4 160 382 175 375
4 175 382 160 36
4 304 581 330 308
4 304 330 581 276
4 328 265 334 17
4 328 334 265 563
4 585 13 83 330
4 585 83 13 283
4 290 151 291 96
4 594 151 291 32
4 594 291 151 96
4 266 309 75 566
4 266 75 309 23
4 47 200 573 525
4 47 573 200 269
4 31 149 593 494
4 31 593 149 287
4 585 319 10 330
4 585 10 319 92
4 148 31 593 354
4 148 593 31 287
4 152 32 594 291
4 152 594 32 391
4 199 47 573 471
4 199 573 47 269
4 198 46 574 273
4 198 574 46 409
4 140 28 578 408
4 140 578 28 282
4 29 144 577 470
4 29 577 144 278
4 266 310 309 564
4 266 309 310 23
4 57 227 557 451
4 557 227 57 260
4 311 284 308 3
4 308 284 311 584
4 328 428 265 17
4 328 265 428 73
4 328 420 268 77
4 328 268 420 14
4 151 97 32 153
4 226 69 260 217
4 260 69 226 261
4 46 202 81 203
4 224 56 72 212
4 68 20 21 310
4 68 21 20 427
4 0 84 1 339
4 1 84 0 311
4 329 348 286 93
4 329 286 348 10
4 589 280 25 279
4 569 55 262 263
4 54 570 262 261
4 280 590 26 281
4 409 575 602 274
4 558 225 433 224
4 558 433 225 559
4 433 598 225 559
4 71 55 558 224
4 71 558 55 559
4 219 225 558 224
4 219 558 225 559
4 55 219 558 224
4 55 558 219 559
4 558 73 223 265
4 558 223 73 264
4 574 77 198 273
4 574 198 77 268
4 78 261 54 69
4 95 149 289 596
4 150 289 149 596
4 150 149 289 35
4 151 150 605 595
4 605 150 151 491
4 605 391 151 595
4 151 391 605 491
4 354 149 605 492
4 354 605 149 596
4 150 605 149 492
4 150 149 605 596
4 578 89 140 283
4 578 140 89 282
4 594 93 152 291
4 594 152 93 286
4 150 151 289 595
4 150 289 151 34
4 96 289 151 595
4 578 133 142 141
4 578 142 133 579
4 597 142 408 579
4 408 578 142 141
4 408 142 578 579
4 26 133 578 141
4 26 578 133 579
4 87 26 578 141
4 87 578 26 579
4 137 88 28 141
4 137 28 88 591
4 282 28 88 141
4 282 88 28 591
4 287 94 31 588
4 287 31 94 149
4 147 31 94 588
4 147 94 31 149
4 593 90 148 284
4 593 148 90 287
4 131 85 29 588
4 131 29 85 143
4 278 29 85 588
4 278 85 29 143
4 201 202 271 575
4 201 271 202 49
4 80 271 202 575
4 269 78 47 568
4 269 47 78 200
4 211 47 78 568
4 211 78 47 200
4 79 200 271 576
4 201 271 200 576
4 201 200 271 50
4 50 270 261 78
4 261 270 50 570
4 261 54 50 78
4 50 54 261 570
4 557 68 227 260
4 557 227 68 259
4 74 573 199 269
4 74 199 573 266
4 288 35 279 589
4 288 279 35 94
4 577 84 144 278
4 577 144 84 277
4 200 201 602 524
4 200 602 201 576
4 596 595 605 150
4 596 605 595 292
4 575 576 602 274
4 575 602 576 201
4 201 202 602 523
4 201 602 202 575
4 409 602 202 523
4 409 202 602 575
4 97 291 151 32
4 97 151 291 290
4 25 279 35 589
4 606 559 433 257
4 606 433 559 598
4 441 606 433 257
4 441 433 606 598
4 337 606 441 257
4 337 441 606 598
4 82 276 478 304
4 82 478 276 275
4 597 478 276 304
4 597 276 478 275
4 272 263 49 569
4 272 49 263 81
4 263 55 49 569
4 263 81 55 72
4 263 55 81 49
4 529 55 81 72
4 529 81 55 49
4 224 558 264 56
4 264 558 224 71
4 224 263 264 71
4 273 272 202 80
4 273 574 202 46
4 202 574 273 80
4 46 426 571 273
4 571 426 46 203
4 571 81 46 273
4 46 81 571 203
4 81 273 202 46
4 81 202 273 272
4 426 56 571 264
4 426 571 56 212
4 72 571 56 264
4 72 56 571 212
4 264 72 224 56
4 224 72 264 263
4 55 262 530 569
4 55 530 262 219
4 26 280 482 590
4 482 280 26 133
4 225 433 532 598
4 532 433 225 224
4 149 289 288 95
4 149 288 289 35
4 289 151 290 96
4 289 290 151 34
4 142 408 484 597
4 142 484 408 141
4 280 142 143 580
4 143 86 280 580
4 143 280 135 142
4 143 135 280 25
4 262 225 226 560
4 226 70 262 560
4 226 262 221 225
4 226 221 262 54
4 271 202 272 80
4 271 272 202 49
4 200 271 270 79
4 200 270 271 50
4 94 481 25 35
4 25 481 94 85
4 25 279 94 35
4 94 279 25 85
4 225 219 530 220
4 530 219 225 262
4 26 34 590 482
4 590 34 281 290
4 590 281 34 26
4 483 281 34 290
4 483 34 281 26
4 221 225 530 220
4 135 134 280 482
4 135 280 134 142
4 133 280 134 482
4 133 134 280 142
4 280 143 279 86
4 279 143 280 25
4 280 25 482 589
4 482 25 280 135
4 262 226 261 70
4 261 226 262 54
4 262 530 221 225
4 262 54 530 570
4 530 54 262 221

CELL_TYPES 3469
1
1
1
1
1
1
1
1
1
1
1
1
1
1
1
1
1
1
1
1
1
1
1
1
1
1
1
1
1
1
1
1
1
1
1
1
1
1
1
1
1
1
1
1
1
1
1
1
1
1
1
1
1
1
1
1
1
1
1
1
1
1
1
1
1
1
1
1
1
1
1
1
1
1
1
1
1
1
1
1
1
1
1
1
1
1
1
1
1
1
1
1
1
1
1
1
1
1
3
3
3
3
3
3
3
3
3
3
3
3
3
3
3
3
3
3
3
3
3
3
3
3
3
3
3
3
3
3
3
3
3
3
3
3
3
3
3
3
3
3
3
3
3
3
3
3
3
3
3
3
3
3
3
3
3
3
3
3
3
3
3
3
3
3
3
3
3
3
3
3
3
3
3
3
3
3
3
3
3
3
3
3
3
3
3
3
3
3
3
3
3
3
3
3
3
3
3
3
3
3
3
3
3
3
3
3
3
3
3
3
3
3
3
3
3
3
3
3
3
3
3
3
3
3
3
3
3
3
3
3
3
3
3
3
3
3
3
3
3
3
3
3
3
3
3
3
3
3
3
3
3
3
3
3
3
3
3
3
3
3
3
3
3
3
3
3
3
3
3
3
3
3
3
3
3
3
3
3
3
3
3
3
3
3
3
3
3
3
3
3
3
3
3
3
3
3
3
3
3
3
3
3
3
3
3
3
3
3
3
3
3
3
3
3
3
3
3
3
3
3
3
3
3
3
3
3
3
3
3
3
3
3
3
3
3
3
3
3
3
3
3
3
3
3
3
3
3
3
3
3
3
3
3
3
3
3
3
3
3
3
3
3
3
3
3
3
3
3
3
3
3
3
3
3
3
3
3
3
3
3
3
3
3
3
3
3
3
3
3
3
3
3
3
3
3
3
3
3
3
3
3
3
3
3
3
3
3
3
3
3
3
3
3
3
3
3
3
3
3
3
3
3
3
3
3
3
3
3
3
3
3
3
3
3
3
3
3
3
3
3
5
5
5
5
5
5
5
5
5
5
5
5
5
5
5
5
5
5
5
5
5
5
5
5
5
5
5
5
5
5
5
5
5
5
5
5
5
5
5
5
5
5
5
5
5
5
5
5
5
5
5
5
5
5
5
5
5
5
5
5
5
5
5
5
5
5
5
5
5
5
5
5
5
5
5
5
5
5
5
5
5
5
5
5
5
5
5
5
5
5
5
5
5
5
5
5
5
5
5
5
5
5
5
5
5
5
5
5
5
5
5
5
5
5
5
5
5
5
5
5
5
5
5
5
5
5
5
5
5
5
5
5
5
5
5
5
5
5
5
5
5
5
5
5
5
5
5
5
5
5
5
5
5
5
5
5
5
5
5
5
5
5
5
5
5
5
5
5
5
5
5
5
5
5
5
5
5
5
5
5
5
5
5
5
5
5
5
5
5
5
5
5
5
5
5
5
5
5
5
5
5
5
5
5
5
5
5
5
5
5
5
5
5
5
5
5
5
5
5
5
5
5
5
5
5
5
5
5
5
5
5
5
5
5
5
5
5
5
5
5
5
5
5
5
5
5
5
5
5
5
5
5
5
5
5
5
5
5
5
5
5
5
5
5
5
5
5
5
5
5
5
5
5
5
5
5
5
5
5
5
5
5
5
5
5
5
5
5
5
5
5
5
5
5
5
5
5
5
5
5
5
5
5
5
5
5
5
5
5
5
5
5
5
5
5
5
5
5
5
5
5
5
5
5
5
5
5
5
5
5
5
5
5
5
5
5
5
5
5
5
5
5
5
5
5
5
5
5
5
5
5
5
5
5
5
5
5
5
5
5
5
5
5
5
5
5
5
5
5
5
5
5
5
5
5
5
5
5
5
5
5
5
5
5
5
5
5
5
5
5
5
5
5
5
5
5
5
5
5
5
5
5
5
5
5
5
5
5
5
5
5
5
5
5
5
5
5
5
5
5
5
5
5
5
5
5
5
5
5
5
5
5
5
5
5
5
5
5
5
5
5
5
5
5
5
5
5
5
5
5
5
5
5
5
5
5
5
5
5
5
5
5
5
5
5
5
5
5
5
5
5
5
5
5
5
5
5
5
5
5
5
5
5
5
5
5
5
5
5
5
5
5
5
5
5
5
5
5
5
5
5
5
5
5
5
5
5
5
5
5
5
5
5
5
5
5
5
5
5
5
5
5
5
5
5
5
5
5
5
5
5
5
5
5
5
5
5
5
5
5
5
5
5
5
5
5
5
5
5
5
5
5
5
5
5
5
5
5
5
5
5
5
5
5
5
5
5
5
5
5
5
5
5
5
5
5
5
5
5
5
5
5
5
5
5
5
5
5
5
5
5
5
5
5
5
5
5
5
5
5
5
5
5
5
5
5
5
5
5
5
5
5
5
5
5
5
5
5
5
5
5
5
5
5
5
5
5
5
5
5
5
5
5
5
5
5
5
5
5
5
5
5
5
5
5
5
5
5
5
5
5
5
5
5
5
5
5
5
5
5
5
5
5
5
5
5
5
5
5
5
5
5
5
5
5
5
5
5
5
5
5
5
5
5
5
5
5
5
5
5
5
5
5
5
5
5
5
5
5
5
5
5
5
5
5
5
5
5
5
5
5
5
5
5
5
5
5
5
5
5
5
5
5
5
5
5
5
5
5
5
5
5
5
5
5
5
5
5
5
5
5
5
5
5
5
5
5
5
5
5
5
5
5
5
5
5
5
5
5
5
5
5
5
5
5
5
5
5
5
5
5
5
5
5
5
5
5
5
5
5
5
5
5
5
5
5
5
5
5
5
5
5
5
5
5
5
5
5
5
5
5
5
5
5
5
5
5
5
5
5
5
5
5
5
5
5
5
5
5
5
5
5
5
5
5
5
5
5
5
5
5
5
5
5
5
5
5
5
5
5
5
5
5
5
5
5
5
5
5
5
5
5
5
5
5
5
5
5
5
5
5
5
5
5
5
5
5
5
5
5
5
5
5
5
5
5
5
5
5
5
5
5
5
5
5
5
5
5
5
5
5
5
5
5
5
5
5
5
5
5
5
5
5
5
5
5
5
5
5
5
5
5
5
5
5
5
5
5
5
5
5
5
5
5
5
5
5
5
5
5
5
5
5
5
5
5
5
5
5
5
5
5
5
5
5
5
5
5
5
5
5
5
5
5
5
5
5
5
5
5
5
5
5
5
5
5
5
5
5
5
5
5
5
5
5
5
5
5
5
5
5
5
5
5
5
5
5
5
5
5
5
5
5
5
5
5
5
5
5
5
5
5
5
5
5
5
5
5
5
5
5
5
5
5
5
5
5
5
5
5
5
5
5
5
5
5
5
5
5
5
5
5
5
5
5
5
5
5
5
5
5
5
5
5
5
5
5
5
5
5
5
5
5
5
5
5
5
5
5
5
5
5
5
5
5
5
5
5
5
5
5
5
5
5
5
5
5
5
5
5
5
5
5
5
5
5
5
5
5
5
5
5
5
5
5
5
5
5
5
5
5
5
5
5
5
5
5
5
5
5
5
5
5
5
5
5
5
5
5
5
5
5
5
5
5
5
5
5
5
5
5
5
5
5
5
5
5
5
5
5
5
5
5
5
5
5
5
5
5
5
5
5
5
5
5
5
5
5
5
5
5
5
5
5
5
5
5
5
5
5
5
5
5
5
5
5
5
5
5
5
5
5
10
10
10
10
10
10
10
10
10
10
10
10
10
10
10
10
10
10
10
10
10
10
10
10
10
10
10
10
10
10
10
10
10
10
10
10
10
10
10
10
10
10
10
10
10
10
10
10
10
10
10
10
10
10
10
10
10
10
10
10
10
10
10
10
10
10
10
10
10
10
10
10
10
10
10
10
10
10
10
10
10
10
10
10
10
10
10
10
10
10
10
10
10
10
10
10
10
10
10
10
10
10
10
10
10
10
10
10
10
10
10
10
10
10
10
10
10
10
10
10
10
10
10
10
10
10
10
10
10
10
10
10
10
10
10
10
10
10
10
10
10
10
10
10
10
10
10
10
10
10
10
10
10
10
10
10
10
10
10
10
10
10
10
10
10
10
10
10
10
10
10
10
10
10
10
10
10
10
10
10
10
10
10
10
10
10
10
10
10
10
10
10
10
10
10
10
10
10
10
10
10
10
10
10
10
10
10
10
10
10
10
10
10
10
10
10
10
10
10
10
10
10
10
10
10
10
10
10
10
10
10
10
10
10
10
10
10
10
10
10
10
10
10
10
10
10
10
10
10
10
10
10
10
10
10
10
10
10
10
10
10
10
10
10
10
10
10
10
10
10
10
10
10
10
10
10
10
10
10
10
10
10
10
10
10
10
10
10
10
10
10
10
10
10
10
10
10
10
10
10
10
10
10
10
10
10
10
10
10
10
10
10
10
10
10
10
10
10
10
10
10
10
10
10
10
10
10
10
10
10
10
10
10
10
10
10
10
10
10
10
10
10
10
10
10
10
10
10
10
10
10
10
10
10
10
10
10
10
10
10
10
10
10
10
10
10
10
10
10
10
10
10
10
10
10
10
10
10
10
10
10
10
10
10
10
10
10
10
10
10
10
10
10
10
10
10
10
10
10
10
10
10
10
10
10
10
10
10
10
10
10
10
10
10
10
10
10
10
10
10
10
10
10
10
10
10
10
10
10
10
10
10
10
10
10
10
10
10
10
10
10
10
10
10
10
10
10
10
10
10
10
10
10
10
10
10
10
10
10
10
10
10
10
10
10
10
10
10
10
10
10
10
10
10
10
10
10
10
10
10
10
10
10
10
10
10
10
10
10
10
10
10
10
10
10
10
10
10
10
10
10
10
10
10
10
10
10
10
10
10
10
10
10
10
10
10
10
10
10
10
10
10
10
10
10
10
10
10
10
10
10
10
10
10
10
10
10
10
10
10
10
10
10
10
10
10
10
10
10
10
10
10
10
10
10
10
10
10
10
10
10
10
10
10
10
10
10
10
10
10
10
10
10
10
10
10
10
10
10
10
10
10
10
10
10
10
10
10
10
10
10
10
10
10
10
10
10
10
10
10
10
10
10
10
10
10
10
10
10
10
10
10
10
10
10
10
10
10
10
10
10
10
10
10
10
10
10
10
10
10
10
10
10
10
10
10
10
10
10
10
10
10
10
10
10
10
10
10
10
10
10
10
10
10
10
10
10
10
10
10
10
10
10
10
10
10
10
10
10
10
10
10
10
10
10
10
10
10
10
10
10
10
10
10
10
10
10
10
10
10
10
10
10
10
10
10
10
10
10
10
10
10
10
10
10
10
10
10
10
10
10
10
10
10
10
10
10
10
10
10
10
10
10
10
10
10
10
10
10
10
10
10
10
10
10
10
10
10
10
10
10
10
10
10
10
10
10
10
10
10
10
10
10
10
10
10
10
10
10
10
10
10
10
10
10
10
10
10
10
10
10
10
10
10
10
10
10
10
10
10
10
10
10
10
10
10
10
10
10
10
10
10
10
10
10
10
10
10
10
10
10
10
10
10
10
10
10
10
10
10
10
10
10
10
10
10
10
10
10
10
10
10
10
10
10
10
10
10
10
10
10
10
10
10
10
10
10
10
10
10
10
10
10
10
10
10
10
10
10
10
10
10
10
10
10
10
10
10
10
10
10
10
10
10
10
10
10
10
10
10
10
10
10
10
10
10
10
10
10
10
10
10
10
10
10
10
10
10
10
10
10
10
10
10
10
10
10
10
10
10
10
10
10
10
10
10
10
10
10
10
10
10
10
10
10
10
10
10
10
10
10
10
10
10
10
10
10
10
10
10
10
10
10
10
10
10
10
10
10
10
10
10
10
10
10
10
10
10
10
10
10
10
10
10
10
10
10
10
10
10
10
10
10
10
10
10
10
10
10
10
10
10
10
10
10
10
10
10
10
10
10
10
10
10
10
10
10
10
10
10
10
10
10
10
10
10
10
10
10
10
10
10
10
10
10
10
10
10
10
10
10
10
10
10
10
10
10
10
10
10
10
10
10
10
10
10
10
10
10
10
10
10
10
10
10
10
10
10
10
10
10
10
10
10
10
10
10
10
10
10
10
10
10
10
10
10
10
10
10
10
10
10
10
10
10
10
10
10
10
10
10
10
10
10
10
10
10
10
10
10
10
10
10
10
10
10
10
10
10
10
10
10
10
10
10
10
10
10
10
10
10
10
10
10
10
10
10
10
10
10
10
10
10
10
10
10
10
10
10
10
10
10
10
10
10
10
10
10
10
10
10
10
10
10
10
10
10
10
10
10
10
10
10
10
10
10
10
10
10
10
10
10
10
10
10
10
10
10
10
10
10
10
10
10
10
10
10
10
10
10
10
10
10
10
10
10
10
10
10
10
10
10
10
10
10
10
10
10
10
10
10
10
10
10
10
10
10
10
10
10
10
10
10
10
10
10
10
10
10
10
10
10
10
10
10
10
10
10
10
10
10
10
10
10
10
10
10
10
10
10
10
10
10
10
10
10
10
10
10
10
10
10
10
10
10
10
10
10
10
10
10
10
10
10
10
10
10
10
10
10
10
10
10
10
10
10
10
10
10
10
10
10
10
10
10
10
10
10
10
10
10
10
10
10
10
10
10
10
10
10
10
10
10
10
10
10
10
10
10
10
10
10
10
10
10
10
10
10
10
10
10
10
10
10
10
10
10
10
10
10
10
10
10
10
10
10
10
10
10
10
10
10
10
10
10
10
10
10
10
10
10
10
10
10
10
10
10
10
10
10
10
10
10
10
10
10
10
10
10
10
10
10
10
10
10
10
10
10
10
10
10
10
10
10
10
10
10
10
10
10
10
10
10
10
10
10
10
10
10
10
10
10
10
10
10
10
10
10
10
10
10
10
10
10
10
10
10
10
10
10
10
10
10
10
10
10
10
10
10
10
10
10
10
10
10
10
10
10
10
10
10
10
10
10
10
10
10
10
10
10
10
10
10
10
10
10
10
10
10
10
10
10
10
10
10
10
10
10
10
10
10
10
10
10
10
10
10
10
10
10
10
10
10
10
10
10
10
10
10
10
10
10
10
10
10
10
10
10
10
10
10
10
10
10
10
10
10
10
10
10
10
10
10
10
10
10
10
10
10
10
10
10
10
10
10
10
10
10
10
10
10
10
10
10
10
10
10
10
10
10
10
10
10
10
10
10
10
10
10
10
10
10
10
10
10
10
10
10
10
10
10
10
10
10
10
10
10
10
10
10
10
10
10
10
10
10
10
10
10
10
10
10
10
10
10
10
10
10
10
10
10
10
10
10
10
10
10
10
10
10
10
10
10
10
10
10
10
10
10
10
10
10
10
10
10
10
10
10
10
10
10
10
10
10
10
10
10
10
10
10
10
10
10
10
10
10
10
10
10
10
10
10
10
10
10
10
10
10
10
10
10
10
10
10
10
10
10
10
10
10
10
10
10
10
10
10
10
10
10
10
10
10
10
10
10
10
10
10
10
10
10
10
10
10
10
10
10
10
10
10
10
10
10
10
10
10
10
10
10
10
10
10
10
10
10
10
10
10
10
10
10
10
10
10
10
10
10
10
10
10
10
10
10
10
10
10
10
10
10
10
10
10
10
10
10
10
10
10
10
10
10
10
10
10
10
10
10
10
10
10
10
10
10
10
10
10
10
10
10
10
10
10
10
10
10
10
10
10
10
10
10
10
10
10
10
10
10
10
10
10
10
10
10
10
10
10
10
10
10
10
10
10
10
10
10
10
10
10
10
10
10
10
10
10
10
10
10
10
10
10
10
10
10
10
10
10
10
10
10
10
10
10
10
10
10
10
10
10
10
10
10
10
10
10
10
10
10
10
10
10
10
10
10
10
10
10
10
10
10
10
10
10
10
10
10
10
10
